<svg xmlns="http://www.w3.org/2000/svg" xmlns:xlink="http://www.w3.org/1999/xlink" width="443" height="851" viewBox="0 0 443 851">
  <defs>
    <clipPath id="clip-black">
      <rect width="443" height="851"/>
    </clipPath>
  </defs>
  <g id="black" clip-path="url(#clip-black)">
    <rect width="443" height="851" fill="#fff"/>
    <g id="Grupo_327" data-name="Grupo 327">
      <g id="Grupo_326" data-name="Grupo 326" transform="translate(-1480.41)">
        <rect id="Rectángulo_1" data-name="Rectángulo 1" width="445.371" height="651.398" transform="translate(1480.41 199.602)" fill="#2b2d2d"/>
        <rect id="Rectángulo_2" data-name="Rectángulo 2" width="445.371" height="208.152" transform="translate(1480.41)" fill="#00bdd4"/>
        <g id="Grupo_318" data-name="Grupo 318" transform="translate(1764.387 26.891)">
          <g id="Grupo_317" data-name="Grupo 317">
            <g id="Grupo_24" data-name="Grupo 24" transform="translate(106.79)">
              <g id="Grupo_18" data-name="Grupo 18" transform="translate(14.179 47.337)">
                <g id="Grupo_5" data-name="Grupo 5" transform="translate(0.165 0.17)">
                  <g id="Grupo_4" data-name="Grupo 4">
                    <g id="Grupo_3" data-name="Grupo 3">
                      <g id="Grupo_2" data-name="Grupo 2">
                        <g id="Grupo_1" data-name="Grupo 1">
                          <path id="Trazado_1" data-name="Trazado 1" d="M2207.2,153.843a12.326,12.326,0,0,1-2.766,1.742l-.161,3.027-4.944.846-1.159-2.8a12.294,12.294,0,0,1-3.189-.722l-2.253,2.026-4.093-2.9,1.16-2.8a12.284,12.284,0,0,1-1.742-2.767l-3.027-.161-.846-4.942,2.8-1.159a12.307,12.307,0,0,1,.723-3.188l-2.026-2.254,2.9-4.094,2.8,1.16a12.28,12.28,0,0,1,2.767-1.742l.161-3.027,4.943-.846,1.159,2.8a12.322,12.322,0,0,1,3.188.722l2.254-2.025,4.094,2.9-1.161,2.8a12.257,12.257,0,0,1,1.743,2.767l3.027.161.846,4.943-2.8,1.159a12.285,12.285,0,0,1-.723,3.189l2.026,2.253L2210,155l-2.8-1.16Zm-3.653-6.2a5.38,5.38,0,1,0-7.5,1.284A5.38,5.38,0,0,0,2203.543,147.645Z" transform="translate(-2184.176 -129.244)" fill="none"/>
                        </g>
                      </g>
                    </g>
                  </g>
                </g>
                <g id="Grupo_11" data-name="Grupo 11" transform="translate(9.614 9.941)">
                  <g id="Grupo_10" data-name="Grupo 10">
                    <g id="Grupo_9" data-name="Grupo 9">
                      <g id="Grupo_8" data-name="Grupo 8">
                        <g id="Grupo_7" data-name="Grupo 7">
                          <g id="Grupo_6" data-name="Grupo 6">
                            <path id="Trazado_2" data-name="Trazado 2" d="M2210.508,154.848a4.07,4.07,0,0,1-.857,1.021,5.355,5.355,0,0,1-3.344,1.352,5.425,5.425,0,0,1-2.486-.477,5.5,5.5,0,0,1-2.235-1.856,5.51,5.51,0,0,1-.993-3.051,5.489,5.489,0,0,1,3.777-5.338,5.51,5.51,0,0,1,3.208-.078,5.5,5.5,0,0,1,2.495,1.491,5.423,5.423,0,0,1,1.276,2.186,5.355,5.355,0,0,1-.162,3.6,4.063,4.063,0,0,1-.677,1.148c-.033-.02.267-.4.565-1.191a5.362,5.362,0,0,0,.066-3.494,5.256,5.256,0,0,0-3.637-3.469,5.265,5.265,0,0,0-3.038.092,5.213,5.213,0,0,0-3.57,5.045,5.257,5.257,0,0,0,.925,2.894A5.255,5.255,0,0,0,2206.3,157a5.358,5.358,0,0,0,3.273-1.225C2210.221,155.233,2210.479,154.824,2210.508,154.848Z" transform="translate(-2200.59 -146.219)" fill="#e0e0e0"/>
                          </g>
                        </g>
                      </g>
                    </g>
                  </g>
                </g>
                <g id="Grupo_17" data-name="Grupo 17">
                  <g id="Grupo_16" data-name="Grupo 16">
                    <g id="Grupo_15" data-name="Grupo 15">
                      <g id="Grupo_14" data-name="Grupo 14">
                        <g id="Grupo_13" data-name="Grupo 13">
                          <g id="Grupo_12" data-name="Grupo 12">
                            <path id="Trazado_3" data-name="Trazado 3" d="M2207.074,153.718a1.188,1.188,0,0,1,.179.062l.534.208,2.1.844-.059.017,2.873-4.11.006.1-2.034-2.245-.037-.04.019-.052a12.239,12.239,0,0,0,.707-3.166l.005-.061.057-.024,2.8-1.167-.066.12-.858-4.941.114.1-3.027-.155-.077,0-.032-.071a12.2,12.2,0,0,0-1.728-2.734l-.052-.062.031-.075,1.156-2.8.048.165-4.1-2.891.179-.01-2.251,2.027-.066.06-.083-.031a12.229,12.229,0,0,0-3.151-.711l-.09-.008-.035-.084-1.161-2.8.165.092-4.942.848.127-.143c-.05.956-.105,1.988-.16,3.027l-.005.093-.084.039a12.135,12.135,0,0,0-2.73,1.718h0l-.159.024h0l-.005,0-.011,0-.022-.009-.044-.018-.088-.036-.176-.073-.352-.146-.7-.291-1.4-.579.185-.053-2.9,4.093-.011-.191,2.024,2.254.062.068-.032.086a12.14,12.14,0,0,0-.716,3.149l-.008.09-.083.035-2.8,1.157.089-.161q.431,2.532.841,4.943l-.132-.117,3.027.165.084,0,.034.077a12.174,12.174,0,0,0,1.718,2.739l.052.062-.031.074c-.4.959-.786,1.889-1.164,2.8l-.045-.154,4.087,2.906-.147.009,2.258-2.02.051-.045.062.023a12.23,12.23,0,0,0,3.16.725l.062.006.023.056,1.149,2.8-.1-.055,4.946-.824-.057.064c.072-1.209.131-2.2.18-3.026l0-.03.027-.013a12.712,12.712,0,0,0,2.133-1.219l.49-.36a1.366,1.366,0,0,1,.164-.118,1.452,1.452,0,0,1-.148.138c-.1.087-.258.218-.477.381a11.872,11.872,0,0,1-2.121,1.268l.029-.042c-.039.826-.085,1.818-.142,3.027l0,.055-.055.01-4.939.867-.071.013-.028-.068-1.169-2.8.085.062a12.379,12.379,0,0,1-3.219-.72l.113-.021-2.249,2.031-.07.063-.077-.055-4.1-2.889-.084-.059.039-.095,1.156-2.8.021.136a12.422,12.422,0,0,1-1.765-2.8l.119.081-3.027-.157-.114-.006-.019-.112-.851-4.942-.02-.116.109-.045,2.8-1.162-.091.125a12.413,12.413,0,0,1,.73-3.228l.029.154-2.027-2.252-.082-.091.07-.1,2.9-4.1.071-.1.114.047,1.4.579.7.291.352.146.176.073.088.036.044.018.022.009.011,0,.006,0h0l-.158.024h0a12.463,12.463,0,0,1,2.8-1.761l-.09.132c.056-1.039.111-2.071.163-3.027l.006-.122.121-.021,4.944-.844.119-.021.046.112,1.157,2.8-.124-.092a12.5,12.5,0,0,1,3.226.733l-.149.028,2.255-2.023.086-.077.093.066,4.091,2.9.09.064-.042.1c-.406.974-.8,1.93-1.165,2.8l-.021-.136a12.449,12.449,0,0,1,1.756,2.8l-.11-.074,3.027.168.1.005.016.1c.293,1.735.572,3.387.835,4.944l.014.087-.081.033-2.8,1.151.062-.085a12.4,12.4,0,0,1-.739,3.211l-.017-.092,2.017,2.261.042.047-.036.051-2.921,4.077-.023.032-.036-.016-2.066-.884-.532-.234A1.413,1.413,0,0,1,2207.074,153.718Z" transform="translate(-2183.889 -128.949)" fill="#e0e0e0"/>
                          </g>
                        </g>
                      </g>
                    </g>
                  </g>
                </g>
              </g>
              <g id="Grupo_23" data-name="Grupo 23">
                <g id="Grupo_22" data-name="Grupo 22">
                  <g id="Grupo_21" data-name="Grupo 21">
                    <g id="Grupo_20" data-name="Grupo 20">
                      <g id="Grupo_19" data-name="Grupo 19">
                        <path id="Trazado_4" data-name="Trazado 4" d="M2191.806,81.5a17.407,17.407,0,0,1-3.911,2.463l-.228,4.279-6.989,1.2-1.639-3.96a17.387,17.387,0,0,1-4.508-1.021l-3.187,2.864-5.787-4.1,1.641-3.957a17.342,17.342,0,0,1-2.463-3.912l-4.28-.229-1.2-6.988,3.96-1.639a17.337,17.337,0,0,1,1.022-4.508l-2.865-3.186,4.1-5.789,3.958,1.641a17.366,17.366,0,0,1,3.912-2.463l.229-4.28,6.989-1.2,1.639,3.96A17.393,17.393,0,0,1,2186.7,51.7l3.186-2.864,5.789,4.1-1.641,3.957A17.346,17.346,0,0,1,2196.5,60.8l4.28.228,1.2,6.988-3.961,1.639A17.365,17.365,0,0,1,2197,74.163l2.864,3.186-4.1,5.788-3.958-1.641Zm-5.166-8.764a7.607,7.607,0,1,0-10.6,1.815A7.606,7.606,0,0,0,2186.64,72.732Z" transform="translate(-2159.257 -46.715)" fill="#e0e0e0" fill-rule="evenodd"/>
                      </g>
                    </g>
                  </g>
                </g>
              </g>
            </g>
            <g id="Grupo_49" data-name="Grupo 49" transform="translate(27.303 13.157)">
              <g id="Grupo_48" data-name="Grupo 48">
                <g id="Grupo_30" data-name="Grupo 30" transform="translate(6.279 23.507)">
                  <g id="Grupo_29" data-name="Grupo 29">
                    <g id="Grupo_28" data-name="Grupo 28">
                      <g id="Grupo_27" data-name="Grupo 27">
                        <g id="Grupo_26" data-name="Grupo 26">
                          <g id="Grupo_25" data-name="Grupo 25">
                            <path id="Trazado_5" data-name="Trazado 5" d="M2064.293,119.281a16.432,16.432,0,0,1,2.535,3.558l4.051-.016,1.505,6.531-3.648,1.76a16.43,16.43,0,0,1-.721,4.31l2.875,2.852-3.554,5.681-3.823-1.334a16.367,16.367,0,0,1-3.559,2.534l.015,4.051-6.53,1.505-1.76-3.648a16.439,16.439,0,0,1-4.309-.722l-2.852,2.874-5.683-3.553,1.336-3.823a16.378,16.378,0,0,1-2.535-3.559l-4.051.016-1.505-6.531,3.649-1.76a16.436,16.436,0,0,1,.721-4.309l-2.874-2.852,3.553-5.683,3.823,1.335a16.342,16.342,0,0,1,3.559-2.535l-.016-4.051,6.53-1.505,1.76,3.649a16.391,16.391,0,0,1,4.309.721l2.852-2.874,5.682,3.553-1.335,3.823Zm-7.992,5.346a7.189,7.189,0,1,0,2.284,9.907A7.189,7.189,0,0,0,2056.3,124.627Z" transform="translate(-2032.079 -110.409)" fill="#e0e0e0" fill-rule="evenodd"/>
                          </g>
                        </g>
                      </g>
                    </g>
                  </g>
                </g>
                <g id="Grupo_36" data-name="Grupo 36" transform="translate(24.604)">
                  <g id="Grupo_35" data-name="Grupo 35">
                    <g id="Grupo_34" data-name="Grupo 34">
                      <g id="Grupo_33" data-name="Grupo 33">
                        <g id="Grupo_32" data-name="Grupo 32">
                          <g id="Grupo_31" data-name="Grupo 31">
                            <path id="Trazado_6" data-name="Trazado 6" d="M2081.749,74.484a9.13,9.13,0,0,1,1.4,1.97l2.242-.009.833,3.616-2.02.974a9.069,9.069,0,0,1-.4,2.386L2085.4,85l-1.968,3.145-2.116-.739a9.068,9.068,0,0,1-1.971,1.4l.009,2.243-3.615.834-.975-2.02a9.086,9.086,0,0,1-2.386-.4l-1.579,1.592-3.146-1.968.74-2.117a9.081,9.081,0,0,1-1.4-1.97l-2.243.008-.833-3.616,2.021-.974a9.1,9.1,0,0,1,.4-2.386l-1.591-1.579,1.968-3.146,2.116.739a9.083,9.083,0,0,1,1.97-1.4l-.008-2.243,3.615-.834.974,2.02a9.088,9.088,0,0,1,2.386.4l1.579-1.591,3.146,1.967-.739,2.117Zm-4.425,2.96a3.98,3.98,0,1,0,1.265,5.485A3.981,3.981,0,0,0,2077.323,77.444Z" transform="translate(-2063.913 -69.572)" fill="#e0e0e0" fill-rule="evenodd"/>
                          </g>
                        </g>
                      </g>
                    </g>
                  </g>
                </g>
                <g id="Grupo_47" data-name="Grupo 47" transform="translate(0 5.133)">
                  <g id="Grupo_46" data-name="Grupo 46">
                    <g id="Grupo_45" data-name="Grupo 45">
                      <g id="Grupo_44" data-name="Grupo 44">
                        <g id="Grupo_43" data-name="Grupo 43">
                          <g id="Grupo_42" data-name="Grupo 42">
                            <g id="Grupo_37" data-name="Grupo 37" transform="translate(0.115 0.084)">
                              <path id="Trazado_7" data-name="Trazado 7" d="M2035.822,82.615a7.381,7.381,0,0,1,1.137,1.6l1.817-.007.675,2.929-1.637.79a7.382,7.382,0,0,1-.323,1.933l1.289,1.28-1.595,2.549-1.714-.6a7.37,7.37,0,0,1-1.6,1.137l.007,1.817-2.929.675-.789-1.637a7.357,7.357,0,0,1-1.933-.324l-1.279,1.289-2.549-1.594.6-1.715a7.355,7.355,0,0,1-1.137-1.6l-1.818.006-.675-2.929,1.637-.789a7.377,7.377,0,0,1,.323-1.933l-1.289-1.28,1.594-2.549,1.714.6a7.368,7.368,0,0,1,1.6-1.137l-.007-1.817,2.93-.675.789,1.637a7.359,7.359,0,0,1,1.934.324l1.279-1.289,2.549,1.594-.6,1.715Zm-3.585,2.4a3.225,3.225,0,1,0,1.025,4.444A3.225,3.225,0,0,0,2032.237,85.013Z" transform="translate(-2021.371 -78.635)" fill="none"/>
                            </g>
                            <g id="Grupo_39" data-name="Grupo 39" transform="translate(5.952 5.916)">
                              <g id="Grupo_38" data-name="Grupo 38">
                                <path id="Trazado_8" data-name="Trazado 8" d="M2036.54,89.313a.784.784,0,0,1,.181.1,2.54,2.54,0,0,1,.462.374,3.211,3.211,0,0,1,.927,1.957,3.256,3.256,0,0,1-.2,1.508,3.31,3.31,0,0,1-1.037,1.406,3.314,3.314,0,0,1-1.8.7,3.3,3.3,0,0,1-3.333-2.084,3.318,3.318,0,0,1-.156-1.923,3.31,3.31,0,0,1,.81-1.548,3.256,3.256,0,0,1,1.269-.839,3.212,3.212,0,0,1,2.165-.023,2.54,2.54,0,0,1,.539.252.8.8,0,0,1,.17.118c-.011.021-.249-.144-.733-.294a3.217,3.217,0,0,0-2.09.083,3.142,3.142,0,0,0-1.946,2.291,3.148,3.148,0,0,0,.158,1.81,3.118,3.118,0,0,0,3.132,1.958,3.145,3.145,0,0,0,1.7-.65,3.146,3.146,0,0,0,1.208-2.752,3.216,3.216,0,0,0-.841-1.915C2036.779,89.473,2036.526,89.333,2036.54,89.313Z" transform="translate(-2031.511 -88.767)" fill="#e0e0e0"/>
                              </g>
                            </g>
                            <g id="Grupo_41" data-name="Grupo 41">
                              <g id="Grupo_40" data-name="Grupo 40">
                                <path id="Trazado_9" data-name="Trazado 9" d="M2035.738,82.553a.726.726,0,0,1,.031-.109l.106-.327q.15-.452.432-1.29l.013.039-2.559-1.578.064-.007-1.273,1.3-.025.026-.035-.011a7.359,7.359,0,0,0-1.917-.314h-.041l-.018-.037-.794-1.634.082.039-2.927.683.062-.079c0,.563.007,1.182.011,1.817v.051l-.045.024a7.278,7.278,0,0,0-1.576,1.127l-.039.036-.051-.017-1.715-.6.107-.037-1.591,2.551-.014-.118,1.291,1.278.042.041-.017.056a7.339,7.339,0,0,0-.317,1.908v.06l-.054.026-1.636.79.054-.113.676,2.929-.1-.079,1.817-.007h.062l.029.055a7.29,7.29,0,0,0,1.12,1.573h0l.022.1v.005l0,.007,0,.013-.009.027-.019.054-.038.108-.075.215-.15.43q-.149.429-.3.855l-.042-.12,2.549,1.595-.125.014,1.28-1.289.043-.043.058.018a7.258,7.258,0,0,0,1.907.321l.06,0,.026.054.789,1.637-.11-.052,2.93-.672-.073.092q0-.925,0-1.817v-.055l.049-.026a7.306,7.306,0,0,0,1.579-1.12l.039-.037.05.018,1.714.6-.1.035,1.6-2.545.011.1-1.286-1.283-.031-.032.013-.043a7.3,7.3,0,0,0,.326-1.913l0-.041.036-.017,1.64-.783-.033.068c-.256-1.136-.474-2.1-.661-2.933l.044.036-1.817-.006h-.02l-.009-.017a7.656,7.656,0,0,0-.8-1.235l-.232-.282a.725.725,0,0,1-.075-.094.8.8,0,0,1,.089.083c.055.058.139.147.245.272a7.129,7.129,0,0,1,.833,1.226l-.03-.017,1.817-.02h.036l.009.036c.195.827.423,1.793.689,2.927l.011.047-.044.021-1.634.8.037-.059a7.419,7.419,0,0,1-.32,1.953l-.018-.074,1.293,1.276.044.044-.033.054-1.588,2.552-.036.058-.064-.022-1.716-.6.09-.019a7.459,7.459,0,0,1-1.615,1.153l.049-.081q0,.893.009,1.817v.075l-.073.017-2.929.679-.075.017-.034-.07-.791-1.636.086.056a7.462,7.462,0,0,1-1.959-.327l.1-.025-1.279,1.29-.057.058-.068-.043-2.55-1.593-.069-.043.027-.077.3-.855.15-.43.075-.215.038-.108.019-.054.01-.027,0-.013,0-.007V92.64c.044.207.012.058.022.1h0a7.482,7.482,0,0,1-1.151-1.618l.09.055-1.817.006h-.081l-.018-.079c-.231-1.008-.46-2-.674-2.93l-.018-.078.072-.035,1.638-.788-.056.086a7.5,7.5,0,0,1,.329-1.958l.024.1-1.288-1.281-.054-.054.041-.064,1.6-2.547.039-.062.068.024,1.714.6-.089.019a7.448,7.448,0,0,1,1.618-1.148l-.045.075c0-.635,0-1.254,0-1.817v-.065l.063-.014,2.93-.668.057-.013.025.052.784,1.639-.058-.038a7.441,7.441,0,0,1,1.949.333l-.061.015,1.285-1.284.03-.029.034.022,2.539,1.61.022.014-.009.025-.46,1.265-.123.327A.756.756,0,0,1,2035.738,82.553Z" transform="translate(-2021.171 -78.489)" fill="#e0e0e0"/>
                              </g>
                            </g>
                          </g>
                        </g>
                      </g>
                    </g>
                  </g>
                </g>
              </g>
            </g>
            <g id="Grupo_99" data-name="Grupo 99" transform="translate(53.734 3.501)">
              <g id="Grupo_97" data-name="Grupo 97">
                <g id="Grupo_57" data-name="Grupo 57">
                  <g id="Grupo_56" data-name="Grupo 56">
                    <g id="Grupo_55" data-name="Grupo 55">
                      <g id="Grupo_54" data-name="Grupo 54">
                        <g id="Grupo_51" data-name="Grupo 51">
                          <g id="Grupo_50" data-name="Grupo 50">
                            <path id="Trazado_10" data-name="Trazado 10" d="M2130.523,206.448l-52.132-.241a11.356,11.356,0,0,1-11.3-11.4l.552-130.7A11.357,11.357,0,0,1,2079.048,52.8l52.132.241a11.356,11.356,0,0,1,11.3,11.4l-.553,130.7A11.356,11.356,0,0,1,2130.523,206.448Z" transform="translate(-2067.088 -52.798)" fill="#455a64"/>
                          </g>
                        </g>
                        <g id="Grupo_53" data-name="Grupo 53" transform="translate(3.461 4.511)">
                          <g id="Grupo_52" data-name="Grupo 52">
                            <path id="Trazado_11" data-name="Trazado 11" d="M2133.658,60.876l-10.107-.047a2.51,2.51,0,0,0-2.465,2.554l-.008,1.833a2.51,2.51,0,0,1-2.465,2.555l-19.7-.091a2.513,2.513,0,0,1-2.444-2.577l.008-1.833a2.514,2.514,0,0,0-2.444-2.577l-3.555-.017-8.846-.041a7.953,7.953,0,0,0-7.99,7.92l-.54,127.569a7.954,7.954,0,0,0,7.917,7.987l52.028.24a7.953,7.953,0,0,0,7.989-7.92l.539-127.569A7.953,7.953,0,0,0,2133.658,60.876Z" transform="translate(-2073.101 -60.635)" fill="#fafafa"/>
                          </g>
                        </g>
                      </g>
                    </g>
                  </g>
                </g>
                <g id="Grupo_58" data-name="Grupo 58" transform="translate(24.555 38.791)">
                  <rect id="Rectángulo_3" data-name="Rectángulo 3" width="28.082" height="28.082" rx="6.655" fill="#97cc17"/>
                </g>
                <g id="Grupo_59" data-name="Grupo 59" transform="translate(14.955 49.006)">
                  <path id="Trazado_12" data-name="Trazado 12" d="M2095.258,137.933l.677,1.372,1.514.22-1.1,1.068.259,1.508-1.354-.712-1.354.712.259-1.508-1.1-1.068,1.514-.22Z" transform="translate(-2093.067 -137.933)" fill="#97cc17"/>
                </g>
                <g id="Grupo_60" data-name="Grupo 60" transform="translate(59.2 35.41)">
                  <path id="Trazado_13" data-name="Trazado 13" d="M2171.626,114.312l.523,1.061,1.171.17-.847.826.2,1.166-1.047-.551-1.047.551.2-1.166-.847-.826,1.171-.17Z" transform="translate(-2169.932 -114.312)" fill="#97cc17"/>
                </g>
                <g id="Grupo_61" data-name="Grupo 61" transform="translate(58.927 60.857)">
                  <path id="Trazado_14" data-name="Trazado 14" d="M2170.4,158.519l.454.616.764-.025-.445.622.26.719-.729-.231-.6.47-.005-.765-.633-.429.726-.242Z" transform="translate(-2169.457 -158.519)" fill="#97cc17"/>
                </g>
                <g id="Grupo_62" data-name="Grupo 62" transform="translate(15.91 38.468)">
                  <path id="Trazado_15" data-name="Trazado 15" d="M2095.442,121.058a.716.716,0,1,1,.716-.717A.717.717,0,0,1,2095.442,121.058Zm0-1.04a.324.324,0,1,0,.323.324A.324.324,0,0,0,2095.442,120.018Z" transform="translate(-2094.726 -119.625)" fill="#97cc17"/>
                </g>
                <g id="Grupo_63" data-name="Grupo 63" transform="translate(56.395 48.367)">
                  <path id="Trazado_16" data-name="Trazado 16" d="M2165.774,138.254a.716.716,0,1,1,.716-.716A.717.717,0,0,1,2165.774,138.254Zm0-1.04a.324.324,0,1,0,.323.324A.325.325,0,0,0,2165.774,137.214Z" transform="translate(-2165.058 -136.822)" fill="#97cc17"/>
                </g>
                <g id="Grupo_64" data-name="Grupo 64" transform="translate(47.05 33.253)">
                  <path id="Trazado_17" data-name="Trazado 17" d="M2149.539,112a.716.716,0,1,1,.716-.716A.717.717,0,0,1,2149.539,112Zm0-1.04a.324.324,0,1,0,.323.324A.324.324,0,0,0,2149.539,110.958Z" transform="translate(-2148.823 -110.565)" fill="#97cc17"/>
                </g>
                <g id="Grupo_65" data-name="Grupo 65" transform="translate(12.21 61.942)">
                  <circle id="Elipse_1" data-name="Elipse 1" cx="0.52" cy="0.52" r="0.52" fill="#97cc17"/>
                </g>
                <g id="Grupo_66" data-name="Grupo 66" transform="translate(36.19 69.363)">
                  <path id="Trazado_18" data-name="Trazado 18" d="M2131,173.817a.52.52,0,1,1-.52-.52A.52.52,0,0,1,2131,173.817Z" transform="translate(-2129.957 -173.297)" fill="#97cc17"/>
                </g>
                <g id="Grupo_67" data-name="Grupo 67" transform="translate(31.146 28.172)">
                  <circle id="Elipse_2" data-name="Elipse 2" cx="0.52" cy="0.52" r="0.52" fill="#97cc17"/>
                </g>
                <g id="Grupo_85" data-name="Grupo 85" transform="translate(31.581 45.513)">
                  <g id="Grupo_72" data-name="Grupo 72" transform="translate(0.085 0.047)">
                    <g id="Grupo_71" data-name="Grupo 71">
                      <g id="Grupo_70" data-name="Grupo 70">
                        <g id="Grupo_69" data-name="Grupo 69">
                          <g id="Grupo_68" data-name="Grupo 68">
                            <path id="Trazado_19" data-name="Trazado 19" d="M2132.83,134.3a5.974,5.974,0,0,1,1.131,1.108l1.444-.264.953,2.234-1.189.86a5.981,5.981,0,0,1,.017,1.583l1.207.835-.906,2.253-1.448-.233a5.936,5.936,0,0,1-1.108,1.131l.264,1.444-2.234.953-.86-1.189a5.947,5.947,0,0,1-1.583.017l-.834,1.207-2.254-.905.233-1.449a5.928,5.928,0,0,1-1.131-1.108l-1.444.264-.953-2.234,1.19-.86a5.93,5.93,0,0,1-.017-1.583l-1.207-.834.906-2.254,1.448.233a5.942,5.942,0,0,1,1.108-1.131l-.263-1.444,2.233-.953.861,1.189a5.943,5.943,0,0,1,1.583-.017l.834-1.207,2.254.905-.233,1.449Zm-2.51,2.417a2.605,2.605,0,1,0,1.446,3.389A2.6,2.6,0,0,0,2130.319,136.716Z" transform="translate(-2122.099 -131.945)" fill="#fafafa"/>
                          </g>
                        </g>
                      </g>
                    </g>
                  </g>
                  <g id="Grupo_78" data-name="Grupo 78" transform="translate(4.661 4.595)">
                    <g id="Grupo_77" data-name="Grupo 77">
                      <g id="Grupo_76" data-name="Grupo 76">
                        <g id="Grupo_75" data-name="Grupo 75">
                          <g id="Grupo_74" data-name="Grupo 74">
                            <g id="Grupo_73" data-name="Grupo 73">
                              <path id="Trazado_20" data-name="Trazado 20" d="M2133.693,140.069a1.961,1.961,0,0,1,.577.289,2.59,2.59,0,0,1,1.011,1.424,2.62,2.62,0,0,1,.055,1.225,2.671,2.671,0,0,1-.623,1.261,2.663,2.663,0,0,1-1.326.81,2.658,2.658,0,0,1-2.938-1.18,2.669,2.669,0,0,1-.4-1.5,2.66,2.66,0,0,1,.423-1.342,2.622,2.622,0,0,1,.886-.847,2.594,2.594,0,0,1,1.715-.328,1.961,1.961,0,0,1,.616.191,6.357,6.357,0,0,0-.625-.133,2.6,2.6,0,0,0-1.653.361,2.542,2.542,0,0,0-1.226,2.1,2.551,2.551,0,0,0,.383,1.421,2.526,2.526,0,0,0,2.777,1.116,2.542,2.542,0,0,0,1.26-.76,2.544,2.544,0,0,0,.57-2.366,2.593,2.593,0,0,0-.944-1.4C2133.906,140.16,2133.685,140.086,2133.693,140.069Z" transform="translate(-2130.049 -139.846)" fill="#fafafa"/>
                            </g>
                          </g>
                        </g>
                      </g>
                    </g>
                  </g>
                  <g id="Grupo_84" data-name="Grupo 84">
                    <g id="Grupo_83" data-name="Grupo 83">
                      <g id="Grupo_82" data-name="Grupo 82">
                        <g id="Grupo_81" data-name="Grupo 81">
                          <g id="Grupo_80" data-name="Grupo 80">
                            <g id="Grupo_79" data-name="Grupo 79">
                              <path id="Trazado_21" data-name="Trazado 21" d="M2132.767,134.265a.557.557,0,0,1,.009-.091l.038-.275c.037-.252.091-.615.162-1.086l.014.026-2.258-.892.045-.014-.829,1.21-.015.022-.026,0a5.916,5.916,0,0,0-1.571.022l-.03,0-.018-.024-.863-1.187.064.018-2.231.958.035-.065.267,1.444.007.037-.03.023a5.912,5.912,0,0,0-1.094,1.121l-.023.031-.039-.006-1.449-.231.072-.041c-.283.708-.589,1.472-.9,2.255l-.025-.083,1.208.833.035.025-.005.043a5.929,5.929,0,0,0,.019,1.564l.006.043-.036.026-1.189.861.024-.088.954,2.233-.082-.044,1.444-.264.044-.008.028.036a5.912,5.912,0,0,0,1.116,1.093h0c.013.032-.029-.071.03.072v.01l0,.012,0,.023-.007.045-.015.092-.029.182-.058.363q-.058.363-.116.722l-.045-.081,2.253.906-.088.026.834-1.207.025-.037.044.005a5.873,5.873,0,0,0,1.564-.016l.043-.006.026.035.859,1.19-.085-.024,2.234-.951-.04.076-.262-1.444-.007-.04.032-.025a5.875,5.875,0,0,0,1.1-1.117l.024-.032.039.006,1.448.235-.068.038.911-2.251.02.068-1.2-.837-.027-.018,0-.032a5.921,5.921,0,0,0-.013-1.57l0-.029.024-.017,1.192-.857-.015.054-.944-2.238.037.02-1.445.254-.015,0-.009-.012a6.168,6.168,0,0,0-.813-.868l-.224-.191a.645.645,0,0,1-.074-.064.862.862,0,0,1,.082.054c.052.039.131.1.232.182a5.726,5.726,0,0,1,.835.857l-.023-.009,1.442-.273.027-.005.01.025.963,2.229.014.033-.028.021-1.186.864.02-.047a6.015,6.015,0,0,1,.022,1.6l-.022-.051,1.209.831.038.026-.017.043c-.285.713-.584,1.462-.9,2.255l-.019.046-.049-.007-1.449-.23.062-.025a6.012,6.012,0,0,1-1.119,1.145l.025-.064q.13.709.265,1.444l.01.054-.051.021-2.232.956-.053.022-.033-.046-.861-1.189.069.029a6.017,6.017,0,0,1-1.6.018l.069-.031-.834,1.208-.033.049-.055-.022-2.254-.9-.055-.022.009-.059q.058-.36.116-.722l.058-.363.029-.182.014-.091.007-.046,0-.023,0-.012v-.009h0l.029.071h0a6.024,6.024,0,0,1-1.144-1.121l.072.027-1.444.264-.058.01-.023-.055L2122,140.8l-.023-.054.048-.035,1.19-.859-.029.069a6.037,6.037,0,0,1-.017-1.6l.03.067-1.206-.835-.046-.032.021-.051c.315-.782.623-1.545.908-2.252l.02-.049.052.009,1.448.235-.062.025a5.992,5.992,0,0,1,1.121-1.141l-.023.06c-.091-.5-.18-1-.261-1.445l-.009-.047.043-.018,2.236-.948.039-.017.025.035.857,1.192-.047-.02a6.009,6.009,0,0,1,1.6-.013l-.042.019.84-1.2.017-.025.028.012,2.248.919.018.007,0,.019c-.08.465-.142.824-.185,1.072l-.05.277A.881.881,0,0,1,2132.767,134.265Z" transform="translate(-2121.951 -131.864)" fill="#fafafa"/>
                            </g>
                          </g>
                        </g>
                      </g>
                    </g>
                  </g>
                </g>
                <g id="Grupo_92" data-name="Grupo 92" transform="translate(14.644 71.48)">
                  <g id="Grupo_86" data-name="Grupo 86" transform="translate(13.857 4.437)">
                    <rect id="Rectángulo_4" data-name="Rectángulo 4" width="28.674" height="20.743" fill="#263238"/>
                  </g>
                  <g id="Grupo_87" data-name="Grupo 87" transform="translate(4.437 4.437)">
                    <rect id="Rectángulo_5" data-name="Rectángulo 5" width="24.996" height="20.743" fill="#455a64"/>
                  </g>
                  <g id="Grupo_88" data-name="Grupo 88">
                    <path id="Trazado_22" data-name="Trazado 22" d="M2096.964,181.412l-4.437-4.437h11.245l4.177,4.437Z" transform="translate(-2092.527 -176.975)" fill="#455a64"/>
                  </g>
                  <g id="Grupo_89" data-name="Grupo 89" transform="translate(29.434)">
                    <path id="Trazado_23" data-name="Trazado 23" d="M2143.66,181.412l5.1-4.437h14l-6.013,4.437Z" transform="translate(-2143.66 -176.975)" fill="#455a64"/>
                  </g>
                  <g id="Grupo_91" data-name="Grupo 91" transform="translate(4.437 4.335)">
                    <g id="Grupo_90" data-name="Grupo 90">
                      <path id="Trazado_24" data-name="Trazado 24" d="M2125.232,184.608c0,.056-5.6.1-12.5.1s-12.5-.046-12.5-.1,5.6-.1,12.5-.1S2125.232,184.551,2125.232,184.608Z" transform="translate(-2100.235 -184.506)" fill="#263238"/>
                    </g>
                  </g>
                </g>
                <g id="Grupo_96" data-name="Grupo 96" transform="translate(13.524 118.732)">
                  <g id="Grupo_95" data-name="Grupo 95">
                    <g id="Grupo_93" data-name="Grupo 93">
                      <rect id="Rectángulo_6" data-name="Rectángulo 6" width="50.144" height="4.081" rx="2.041" fill="#e0e0e0"/>
                    </g>
                    <g id="Grupo_94" data-name="Grupo 94">
                      <rect id="Rectángulo_7" data-name="Rectángulo 7" width="26.605" height="4.081" rx="2.041" fill="#97cc17"/>
                    </g>
                  </g>
                </g>
              </g>
              <g id="Grupo_98" data-name="Grupo 98" transform="translate(31.734 129.337)">
                <path id="Trazado_25" data-name="Trazado 25" d="M2125.762,281.014c0,.836-.582,1.489-1.783,1.489a2.537,2.537,0,0,1-1.763-.632l.246-.4a2.131,2.131,0,0,0,1.51.569c.836,0,1.279-.408,1.279-1,0-.632-.394-1.025-1.644-1.025h-1.047l.253-2.465h2.69v.449h-2.247l-.168,1.566h.632C2125.2,279.56,2125.762,280.143,2125.762,281.014Z" transform="translate(-2122.216 -277.51)" fill="#97cc17"/>
                <path id="Trazado_26" data-name="Trazado 26" d="M2132.606,281.014c0,.836-.583,1.489-1.784,1.489a2.538,2.538,0,0,1-1.763-.632l.246-.4a2.13,2.13,0,0,0,1.51.569c.835,0,1.278-.408,1.278-1,0-.632-.393-1.025-1.643-1.025H2129.4l.253-2.465h2.69v.449H2130.1l-.169,1.566h.631C2132.045,279.56,2132.606,280.143,2132.606,281.014Z" transform="translate(-2125.12 -277.51)" fill="#97cc17"/>
                <path id="Trazado_27" data-name="Trazado 27" d="M2136.086,278.818c0-.8.45-1.334,1.11-1.334s1.109.527,1.109,1.334-.457,1.334-1.109,1.334S2136.086,279.618,2136.086,278.818Zm1.869,0c0-.64-.3-1.019-.759-1.019s-.759.386-.759,1.019.3,1.018.759,1.018S2137.955,279.457,2137.955,278.818Zm2.219-1.3h.414l-3.357,4.916h-.414Zm-1.074,3.617c0-.8.456-1.334,1.109-1.334s1.109.534,1.109,1.334-.449,1.334-1.109,1.334S2139.1,281.937,2139.1,281.136Zm1.868,0c0-.632-.3-1.018-.759-1.018s-.759.379-.759,1.018.3,1.018.759,1.018S2140.968,281.768,2140.968,281.136Z" transform="translate(-2128.102 -277.484)" fill="#97cc17"/>
              </g>
            </g>
            <g id="Grupo_101" data-name="Grupo 101" transform="translate(6.273 181.919)">
              <g id="Grupo_100" data-name="Grupo 100">
                <path id="Trazado_28" data-name="Trazado 28" d="M2169.209,362.851c0,.056-41.32.1-92.281.1-50.978,0-92.291-.046-92.291-.1s41.313-.1,92.291-.1C2127.889,362.749,2169.209,362.794,2169.209,362.851Z" transform="translate(-1984.637 -362.749)" fill="#263238"/>
              </g>
            </g>
            <g id="Grupo_316" data-name="Grupo 316" transform="translate(0 81.276)">
              <g id="Grupo_102" data-name="Grupo 102" transform="translate(87.802 90.748)">
                <path id="Trazado_29" data-name="Trazado 29" d="M2126.272,345.56l1.435,5.5,16.08-.148s-2.2-1.661-10.279-1.54l-.783-3.807Z" transform="translate(-2126.272 -345.56)" fill="#ffbe9d"/>
              </g>
              <g id="Grupo_151" data-name="Grupo 151" transform="translate(21.167 26.007)">
                <g id="Grupo_103" data-name="Grupo 103">
                  <path id="Trazado_30" data-name="Trazado 30" d="M2059.616,235.756l-12.062,1.138-4.9,1.387a13.28,13.28,0,0,0-5.581,3.2l-15.79,15.156L2018.4,233.09l-7.888.686,1.317,30.307a9.026,9.026,0,0,0,8.6,6.283,9.319,9.319,0,0,0,6.352-2.615l11.243-10.567-1.117,13.945-3.865,8.668,27.6,15.586s3.242-16.046,4.983-27.147c1.407-8.98,2.124-28.54,2.124-28.54Z" transform="translate(-2010.512 -233.09)" fill="#97cc17"/>
                </g>
                <g id="Grupo_104" data-name="Grupo 104" transform="translate(54.586 6.329)">
                  <path id="Trazado_31" data-name="Trazado 31" d="M2107.269,244.085s6.1,2.262,7.579,7.041c1.308,4.239,5.675,28.074,5.675,28.074l4.332,25.226-9.07.345-10.444-42.993Z" transform="translate(-2105.339 -244.085)" fill="#97cc17"/>
                </g>
                <g id="Grupo_106" data-name="Grupo 106" transform="translate(26.156 15.874)">
                  <g id="Grupo_105" data-name="Grupo 105">
                    <path id="Trazado_32" data-name="Trazado 32" d="M2055.959,282.214c-.072-.007.333-4.836.9-10.785s1.09-10.768,1.162-10.761-.333,4.835-.9,10.786S2056.031,282.22,2055.959,282.214Z" transform="translate(-2055.951 -260.667)" fill="#263238"/>
                  </g>
                </g>
                <g id="Grupo_108" data-name="Grupo 108" transform="translate(27.9 25.563)">
                  <g id="Grupo_107" data-name="Grupo 107">
                    <path id="Trazado_33" data-name="Trazado 33" d="M2077.333,277.5a.906.906,0,0,1-.08.236l-.276.657a9.876,9.876,0,0,1-.486,1.018c-.208.388-.423.842-.726,1.307l-.457.741c-.16.256-.353.506-.539.774-.364.542-.815,1.074-1.277,1.644a24.661,24.661,0,0,1-7.432,5.9c-.66.321-1.28.64-1.891.871-.3.12-.59.251-.876.35l-.825.277c-.521.19-1.012.3-1.437.412a10.125,10.125,0,0,1-1.1.242l-.7.12a.864.864,0,0,1-.248.024.943.943,0,0,1,.238-.076l.691-.167c.3-.066.667-.152,1.085-.284s.9-.246,1.416-.446l.813-.291c.282-.1.564-.237.863-.361.6-.238,1.213-.561,1.863-.885a25.5,25.5,0,0,0,7.361-5.846c.463-.56.916-1.082,1.284-1.614.188-.263.383-.508.547-.759l.468-.726c.311-.455.536-.9.754-1.278s.391-.714.523-.993l.319-.635A.885.885,0,0,1,2077.333,277.5Z" transform="translate(-2058.98 -277.499)" fill="#263238"/>
                  </g>
                </g>
                <g id="Grupo_110" data-name="Grupo 110" transform="translate(28.199 28.729)" opacity="0.2">
                  <g id="Grupo_109" data-name="Grupo 109">
                    <path id="Trazado_34" data-name="Trazado 34" d="M2060.667,294.136a1.85,1.85,0,0,1-1.111-2.218,3.187,3.187,0,0,1,1.8-1.959,13.232,13.232,0,0,1,2.627-.778,22.037,22.037,0,0,0,10.262-5.756c.261-.26.633-.548.956-.371.434.237.162.9-.16,1.276a33.13,33.13,0,0,1-14.651,9.83" transform="translate(-2059.499 -282.998)"/>
                  </g>
                </g>
                <g id="Grupo_112" data-name="Grupo 112" transform="translate(53.887 20.718)">
                  <g id="Grupo_111" data-name="Grupo 111">
                    <path id="Trazado_35" data-name="Trazado 35" d="M2107.161,282.553a2.223,2.223,0,0,1-.184-.513c-.1-.334-.24-.821-.4-1.425-.326-1.207-.745-2.883-1.164-4.744s-.757-3.556-.979-4.786c-.112-.615-.2-1.114-.246-1.46a2.212,2.212,0,0,1-.053-.542,2.17,2.17,0,0,1,.152.523q.135.594.327,1.443l1.053,4.766c.418,1.826.8,3.477,1.088,4.756l.323,1.444A2.21,2.21,0,0,1,2107.161,282.553Z" transform="translate(-2104.125 -269.082)" fill="#263238"/>
                  </g>
                </g>
                <g id="Grupo_114" data-name="Grupo 114" transform="translate(1.129 0.549)">
                  <g id="Grupo_113" data-name="Grupo 113">
                    <path id="Trazado_36" data-name="Trazado 36" d="M2012.739,236.445a5.624,5.624,0,1,1,.029-1.211A2.906,2.906,0,0,1,2012.739,236.445Z" transform="translate(-2012.474 -234.044)" fill="#263238"/>
                  </g>
                </g>
                <g id="Grupo_116" data-name="Grupo 116" transform="translate(3.493 0.477)">
                  <g id="Grupo_115" data-name="Grupo 115">
                    <path id="Trazado_37" data-name="Trazado 37" d="M2016.79,236.465a6.32,6.32,0,1,1,.065-1.28A3.245,3.245,0,0,1,2016.79,236.465Z" transform="translate(-2016.581 -233.919)" fill="#263238"/>
                  </g>
                </g>
                <g id="Grupo_118" data-name="Grupo 118" transform="translate(5.766 0.04)">
                  <g id="Grupo_117" data-name="Grupo 117">
                    <path id="Trazado_38" data-name="Trazado 38" d="M2020.761,235.995a7.823,7.823,0,1,1,.051-1.425A3.973,3.973,0,0,1,2020.761,235.995Z" transform="translate(-2020.529 -233.16)" fill="#263238"/>
                  </g>
                </g>
                <g id="Grupo_120" data-name="Grupo 120" transform="translate(10.397 23.016)">
                  <g id="Grupo_119" data-name="Grupo 119">
                    <path id="Trazado_39" data-name="Trazado 39" d="M2028.61,277.219a16.78,16.78,0,1,1,.343-2.059A8.465,8.465,0,0,1,2028.61,277.219Z" transform="translate(-2028.574 -273.074)" fill="#263238"/>
                  </g>
                </g>
                <g id="Grupo_122" data-name="Grupo 122" transform="translate(66.487 64.388)">
                  <g id="Grupo_121" data-name="Grupo 121">
                    <path id="Trazado_40" data-name="Trazado 40" d="M2126.049,344.946a6.632,6.632,0,1,1,.094,1.309A3.388,3.388,0,0,1,2126.049,344.946Z" transform="translate(-2126.015 -344.946)" fill="#263238"/>
                  </g>
                </g>
                <g id="Grupo_124" data-name="Grupo 124" transform="translate(69.466 64.386)">
                  <g id="Grupo_123" data-name="Grupo 123">
                    <path id="Trazado_41" data-name="Trazado 41" d="M2131.228,344.943a5.464,5.464,0,1,1,.066,1.189A2.816,2.816,0,0,1,2131.228,344.943Z" transform="translate(-2131.189 -344.943)" fill="#263238"/>
                  </g>
                </g>
                <g id="Grupo_126" data-name="Grupo 126" transform="translate(72.282 64.099)">
                  <g id="Grupo_125" data-name="Grupo 125">
                    <path id="Trazado_42" data-name="Trazado 42" d="M2136.134,344.444a11.216,11.216,0,0,1,.441,2.617,4.939,4.939,0,0,1-.441-2.617Z" transform="translate(-2136.081 -344.444)" fill="#263238"/>
                  </g>
                </g>
                <g id="Grupo_128" data-name="Grupo 128" transform="translate(53.73 9.212)">
                  <g id="Grupo_127" data-name="Grupo 127">
                    <path id="Trazado_43" data-name="Trazado 43" d="M2111.536,249.148c0,.048-.634.01-1.617.215a7.536,7.536,0,0,0-5.622,4.907c-.336.946-.384,1.579-.432,1.573a1.345,1.345,0,0,1,.008-.445,6.244,6.244,0,0,1,.25-1.186,7.251,7.251,0,0,1,5.762-5.029,6.29,6.29,0,0,1,1.21-.087A1.321,1.321,0,0,1,2111.536,249.148Z" transform="translate(-2103.853 -249.093)" fill="#263238"/>
                  </g>
                </g>
                <g id="Grupo_130" data-name="Grupo 130" transform="translate(54.515 19.517)">
                  <g id="Grupo_129" data-name="Grupo 129">
                    <path id="Trazado_44" data-name="Trazado 44" d="M2115.844,267a9.478,9.478,0,0,1-1.5.638c-.944.357-2.26.818-3.729,1.277s-2.814.828-3.793,1.072a9.458,9.458,0,0,1-1.6.332,11.072,11.072,0,0,1,1.552-.509l3.765-1.143,3.746-1.2A10.919,10.919,0,0,1,2115.844,267Z" transform="translate(-2105.216 -266.996)" fill="#fafafa"/>
                  </g>
                </g>
                <g id="Grupo_132" data-name="Grupo 132" transform="translate(58.184 36.902)">
                  <g id="Grupo_131" data-name="Grupo 131">
                    <path id="Trazado_45" data-name="Trazado 45" d="M2122.4,297.2a10.08,10.08,0,0,1-1.565.424c-.973.229-2.32.528-3.811.843s-2.845.585-3.827.769a10.023,10.023,0,0,1-1.6.244,9.912,9.912,0,0,1,1.562-.424c.973-.23,2.321-.529,3.814-.844s2.846-.586,3.829-.77A9.9,9.9,0,0,1,2122.4,297.2Z" transform="translate(-2111.591 -297.197)" fill="#fafafa"/>
                  </g>
                </g>
                <g id="Grupo_134" data-name="Grupo 134" transform="translate(63.146 58.558)">
                  <g id="Grupo_133" data-name="Grupo 133">
                    <path id="Trazado_46" data-name="Trazado 46" d="M2130.417,334.935a9.759,9.759,0,0,1-1.5.077c-.924.024-2.2.063-3.608.143s-2.681.189-3.6.271a9.763,9.763,0,0,1-1.5.1,7.669,7.669,0,0,1,1.477-.278c.918-.13,2.194-.266,3.608-.348s2.7-.091,3.623-.068A7.644,7.644,0,0,1,2130.417,334.935Z" transform="translate(-2120.211 -334.817)" fill="#fafafa"/>
                  </g>
                </g>
                <g id="Grupo_136" data-name="Grupo 136" transform="translate(26.381 34.915)">
                  <g id="Grupo_135" data-name="Grupo 135">
                    <path id="Trazado_47" data-name="Trazado 47" d="M2063.277,297.043a5.149,5.149,0,0,1-1.037-.442l-2.445-1.171-2.453-1.155a5.168,5.168,0,0,1-1-.525,4.652,4.652,0,0,1,1.071.356c.647.255,1.532.634,2.491,1.09s1.812.9,2.418,1.242A4.6,4.6,0,0,1,2063.277,297.043Z" transform="translate(-2056.343 -293.746)" fill="#fafafa"/>
                  </g>
                </g>
                <g id="Grupo_138" data-name="Grupo 138" transform="translate(38.571 35.683)">
                  <g id="Grupo_137" data-name="Grupo 137">
                    <path id="Trazado_48" data-name="Trazado 48" d="M2092.367,301.019a2.949,2.949,0,0,1-.59-.224l-1.571-.684c-1.326-.58-3.163-1.368-5.211-2.187s-3.924-1.515-5.284-2.009l-1.611-.588a2.97,2.97,0,0,1-.581-.245,2.886,2.886,0,0,1,.614.148c.39.111.95.284,1.638.51,1.377.451,3.266,1.121,5.32,1.942s3.883,1.638,5.191,2.262c.655.312,1.18.572,1.539.76A2.941,2.941,0,0,1,2092.367,301.019Z" transform="translate(-2077.519 -295.078)" fill="#fafafa"/>
                  </g>
                </g>
                <g id="Grupo_140" data-name="Grupo 140" transform="translate(27.591 23.394)">
                  <g id="Grupo_139" data-name="Grupo 139">
                    <path id="Trazado_49" data-name="Trazado 49" d="M2085.838,277.766a1.116,1.116,0,0,1-.282-.024l-.8-.12-2.929-.474c-2.473-.4-5.89-.95-9.671-1.508s-7.213-1.017-9.7-1.342l-2.941-.389-.8-.116a1.137,1.137,0,0,1-.277-.058,1.2,1.2,0,0,1,.283.006l.8.067c.7.063,1.707.168,2.953.307,2.491.279,5.928.711,9.713,1.267s7.2,1.133,9.664,1.584c1.233.225,2.229.416,2.916.556l.79.168A1.188,1.188,0,0,1,2085.838,277.766Z" transform="translate(-2058.443 -273.73)" fill="#fafafa"/>
                  </g>
                </g>
                <g id="Grupo_142" data-name="Grupo 142" transform="translate(29.749 8.831)">
                  <g id="Grupo_141" data-name="Grupo 141">
                    <path id="Trazado_50" data-name="Trazado 50" d="M2086.3,252.038c-.011.071-5.416-.677-12.072-1.672s-12.045-1.859-12.034-1.93,5.415.678,12.073,1.672S2086.309,251.967,2086.3,252.038Z" transform="translate(-2062.192 -248.432)" fill="#fafafa"/>
                  </g>
                </g>
                <g id="Grupo_144" data-name="Grupo 144" transform="translate(20.515 14.384)">
                  <g id="Grupo_143" data-name="Grupo 143">
                    <path id="Trazado_51" data-name="Trazado 51" d="M2051.176,269.243a13,13,0,0,1-.768-1.623l-1.756-3.953-1.794-3.937a13.129,13.129,0,0,1-.705-1.651,1.765,1.765,0,0,1,.258.409c.151.271.361.668.613,1.162.5.988,1.171,2.367,1.865,3.91s1.283,2.958,1.688,3.99c.2.516.361.936.463,1.229A1.744,1.744,0,0,1,2051.176,269.243Z" transform="translate(-2046.151 -258.079)" fill="#fafafa"/>
                  </g>
                </g>
                <g id="Grupo_146" data-name="Grupo 146" transform="translate(11.952 22.552)">
                  <g id="Grupo_145" data-name="Grupo 145">
                    <path id="Trazado_52" data-name="Trazado 52" d="M2034.1,285.795c-.071.015-.759-3-1.538-6.737s-1.353-6.776-1.283-6.791.759,3,1.538,6.738S2034.173,285.781,2034.1,285.795Z" transform="translate(-2031.276 -272.267)" fill="#fafafa"/>
                  </g>
                </g>
                <g id="Grupo_148" data-name="Grupo 148" transform="translate(0.913 19.681)">
                  <g id="Grupo_147" data-name="Grupo 147">
                    <path id="Trazado_53" data-name="Trazado 53" d="M2021.518,267.289a89.445,89.445,0,0,1-9.42,2.018,89.074,89.074,0,0,1,9.42-2.018Z" transform="translate(-2012.098 -267.281)" fill="#fafafa"/>
                  </g>
                </g>
                <g id="Grupo_150" data-name="Grupo 150" transform="translate(0.24 6.016)">
                  <g id="Grupo_149" data-name="Grupo 149">
                    <path id="Trazado_54" data-name="Trazado 54" d="M2019.455,243.554a5.877,5.877,0,0,1-1.232.27c-.766.13-1.829.284-3.008.418s-2.25.223-3.026.268a5.828,5.828,0,0,1-1.261.013,6.3,6.3,0,0,1,1.245-.2l3.013-.343,3.012-.342A6.314,6.314,0,0,1,2019.455,243.554Z" transform="translate(-2010.929 -243.541)" fill="#fafafa"/>
                  </g>
                </g>
              </g>
              <g id="Grupo_157" data-name="Grupo 157" transform="translate(21.996 8.307)">
                <g id="Grupo_155" data-name="Grupo 155" transform="translate(3.623)">
                  <g id="Grupo_152" data-name="Grupo 152">
                    <path id="Trazado_55" data-name="Trazado 55" d="M2026.621,202.341c.143.282,3.894,19.565,3.894,19.565l-8.845.413-3.424-16.582Z" transform="translate(-2018.245 -202.341)" fill="#455a64"/>
                  </g>
                  <g id="Grupo_153" data-name="Grupo 153" transform="translate(8.254 0.049)">
                    <path id="Trazado_56" data-name="Trazado 56" d="M2036.6,221.942l1.013-.428-3.827-19.007-1.2-.08Z" transform="translate(-2032.584 -202.426)" fill="#263238"/>
                  </g>
                  <g id="Grupo_154" data-name="Grupo 154" transform="translate(3.907 3.812)">
                    <path id="Trazado_57" data-name="Trazado 57" d="M2025.945,209.366a.458.458,0,1,1-.511-.4A.459.459,0,0,1,2025.945,209.366Z" transform="translate(-2025.032 -208.964)" fill="#263238"/>
                  </g>
                </g>
                <g id="Grupo_156" data-name="Grupo 156" transform="translate(0 8.348)">
                  <path id="Trazado_58" data-name="Trazado 58" d="M2018.568,226.246l-.131-2.525,3.778-1.557-1.473-3.5a3.048,3.048,0,0,0-4.244-1.452l-1.516.823a4.329,4.329,0,0,0-2.15,2.8,55.408,55.408,0,0,0-.878,6.167" transform="translate(-2011.951 -216.843)" fill="#ffbe9d"/>
                </g>
              </g>
              <g id="Grupo_175" data-name="Grupo 175" transform="translate(1.746 89.511)">
                <g id="Grupo_158" data-name="Grupo 158" transform="translate(0 0.83)">
                  <path id="Trazado_59" data-name="Trazado 59" d="M1993.526,344.853s-15.544,4.3-16.168,4.522c-.936.33-.779,3.761.678,3.707.69-.025,11.939.419,13.361.33a34.269,34.269,0,0,0,5.71-1.779Z" transform="translate(-1976.773 -344.853)" fill="#97cc17"/>
                </g>
                <g id="Grupo_160" data-name="Grupo 160" transform="translate(8.492 3.656)">
                  <g id="Grupo_159" data-name="Grupo 159">
                    <path id="Trazado_60" data-name="Trazado 60" d="M1993.311,352.868a14.607,14.607,0,0,0-.685-1.669,14.806,14.806,0,0,0-1.1-1.431,3.456,3.456,0,0,1,1.784,3.1Z" transform="translate(-1991.525 -349.763)" fill="#263238"/>
                  </g>
                </g>
                <g id="Grupo_162" data-name="Grupo 162" transform="translate(10.401 3.056)">
                  <g id="Grupo_161" data-name="Grupo 161">
                    <path id="Trazado_61" data-name="Trazado 61" d="M1996.339,351.69c-.076.013-.234-.721-.647-1.533s-.9-1.38-.846-1.433a3.9,3.9,0,0,1,1.494,2.967Z" transform="translate(-1994.841 -348.72)" fill="#263238"/>
                  </g>
                </g>
                <g id="Grupo_164" data-name="Grupo 164" transform="translate(12.205 2.519)">
                  <g id="Grupo_163" data-name="Grupo 163">
                    <path id="Trazado_62" data-name="Trazado 62" d="M1999.189,350.887a5.452,5.452,0,0,0-1.21-3.1,2.917,2.917,0,0,1,1.21,3.1Z" transform="translate(-1997.976 -347.786)" fill="#263238"/>
                  </g>
                </g>
                <g id="Grupo_166" data-name="Grupo 166" transform="translate(12.976)">
                  <g id="Grupo_165" data-name="Grupo 165">
                    <path id="Trazado_63" data-name="Trazado 63" d="M1999.482,347.022a2.751,2.751,0,0,1-.167-1.156,5.466,5.466,0,0,1,.158-1.268,5.365,5.365,0,0,1,.231-.722.869.869,0,0,1,.249-.38.415.415,0,0,1,.534.026.686.686,0,0,1,.207.44,2.947,2.947,0,0,1,.02.41,3.417,3.417,0,0,1-.1.761,4.645,4.645,0,0,1-.478,1.188,3.15,3.15,0,0,1-.7.936c-.036-.025.225-.387.535-1.021a5.092,5.092,0,0,0,.408-1.156,3.443,3.443,0,0,0,.075-.71c-.007-.238,0-.537-.143-.652a.151.151,0,0,0-.205-.017.656.656,0,0,0-.17.272,5.649,5.649,0,0,0-.235.686,6.225,6.225,0,0,0-.205,1.213C1999.453,346.576,1999.525,347.016,1999.482,347.022Z" transform="translate(-1999.315 -343.411)" fill="#263238"/>
                  </g>
                </g>
                <g id="Grupo_168" data-name="Grupo 168" transform="translate(13.163 3.292)">
                  <g id="Grupo_167" data-name="Grupo 167">
                    <path id="Trazado_64" data-name="Trazado 64" d="M1999.639,349.291a2.179,2.179,0,0,1,1-.162,4.516,4.516,0,0,1,1.1.135,2.416,2.416,0,0,1,.636.234.657.657,0,0,1,.351.71.776.776,0,0,1-.56.554,1.412,1.412,0,0,1-.7,0,2.682,2.682,0,0,1-1.01-.5,2.722,2.722,0,0,1-.723-.712,6.866,6.866,0,0,1,.828.561,2.776,2.776,0,0,0,.954.413,1.233,1.233,0,0,0,.576-.008.528.528,0,0,0,.379-.37.4.4,0,0,0-.231-.434,2.385,2.385,0,0,0-.563-.22,5.248,5.248,0,0,0-1.048-.182C2000.026,349.271,1999.645,349.333,1999.639,349.291Z" transform="translate(-1999.639 -349.129)" fill="#263238"/>
                  </g>
                </g>
                <g id="Grupo_170" data-name="Grupo 170" transform="translate(6.819 4.302)">
                  <g id="Grupo_169" data-name="Grupo 169">
                    <path id="Trazado_65" data-name="Trazado 65" d="M1989.69,353.51a8.414,8.414,0,0,0-.307-1.4,8.32,8.32,0,0,0-.761-1.216,2.23,2.23,0,0,1,1.068,2.619Z" transform="translate(-1988.619 -350.885)" fill="#263238"/>
                  </g>
                </g>
                <g id="Grupo_172" data-name="Grupo 172" transform="translate(2.059 7.642)">
                  <g id="Grupo_171" data-name="Grupo 171">
                    <path id="Trazado_66" data-name="Trazado 66" d="M1997.026,356.69a3.3,3.3,0,0,1-.6.283,13.317,13.317,0,0,1-1.73.536,24.663,24.663,0,0,1-5.934.562c-2.33-.025-4.428-.132-5.951-.192l-1.8-.1a3.174,3.174,0,0,1-.66-.071,3.279,3.279,0,0,1,.663-.031l1.8.013,5.946.116a27.77,27.77,0,0,0,5.893-.482C1996.14,357.024,1997.008,356.642,1997.026,356.69Z" transform="translate(-1980.349 -356.686)" fill="#263238"/>
                  </g>
                </g>
                <g id="Grupo_174" data-name="Grupo 174" transform="translate(11.65 6.678)">
                  <g id="Grupo_173" data-name="Grupo 173">
                    <path id="Trazado_67" data-name="Trazado 67" d="M2004.556,356.334c-.021.036-.447-.213-1.165-.528a5.415,5.415,0,0,0-2.941-.489,4.662,4.662,0,0,0-2.543,1.512,9.081,9.081,0,0,1-.9.915,4.822,4.822,0,0,1,.761-1.04,6.193,6.193,0,0,1,1.03-.964,3.69,3.69,0,0,1,1.606-.68,5.137,5.137,0,0,1,3.06.579A4.134,4.134,0,0,1,2004.556,356.334Z" transform="translate(-1997.011 -355.012)" fill="#263238"/>
                  </g>
                </g>
              </g>
              <g id="Grupo_195" data-name="Grupo 195" transform="translate(29.527 86.05)">
                <g id="Grupo_176" data-name="Grupo 176">
                  <path id="Trazado_68" data-name="Trazado 68" d="M2030.506,337.4s14.709,9.63,15.237,10.029c.792.6-.116,3.448-1.489,2.955-.649-.233-12.991-3.667-14.319-4.183a34.266,34.266,0,0,1-4.9-3.429Z" transform="translate(-2025.035 -337.398)" fill="#97cc17"/>
                </g>
                <g id="Grupo_178" data-name="Grupo 178" transform="translate(9.83 5.194)">
                  <g id="Grupo_177" data-name="Grupo 177">
                    <path id="Trazado_69" data-name="Trazado 69" d="M2042.121,348.844a3.452,3.452,0,0,1,2.641-2.411,6.808,6.808,0,0,0-2.641,2.411Z" transform="translate(-2042.112 -346.42)" fill="#263238"/>
                  </g>
                </g>
                <g id="Grupo_180" data-name="Grupo 180" transform="translate(8.51 4.044)">
                  <g id="Grupo_179" data-name="Grupo 179">
                    <path id="Trazado_70" data-name="Trazado 70" d="M2039.827,346.8a3.9,3.9,0,0,1,2.324-2.373c.037.068-.607.454-1.242,1.109S2039.9,346.84,2039.827,346.8Z" transform="translate(-2039.819 -344.423)" fill="#263238"/>
                  </g>
                </g>
                <g id="Grupo_182" data-name="Grupo 182" transform="translate(7.174 2.983)">
                  <g id="Grupo_181" data-name="Grupo 181">
                    <path id="Trazado_71" data-name="Trazado 71" d="M2037.517,345.173a2.919,2.919,0,0,1,2.093-2.582,5.452,5.452,0,0,0-2.093,2.582Z" transform="translate(-2037.497 -342.58)" fill="#263238"/>
                  </g>
                </g>
                <g id="Grupo_184" data-name="Grupo 184" transform="translate(7.547 0.066)">
                  <g id="Grupo_183" data-name="Grupo 183">
                    <path id="Trazado_72" data-name="Trazado 72" d="M2038.665,341.193c-.039-.018.162-.416.333-1.1a6.234,6.234,0,0,0,.173-1.219,5.711,5.711,0,0,0-.016-.725.662.662,0,0,0-.079-.31.15.15,0,0,0-.2-.046c-.168.067-.256.352-.334.578a3.4,3.4,0,0,0-.144.7,5.114,5.114,0,0,0,.037,1.224c.1.7.241,1.122.2,1.135a3.148,3.148,0,0,1-.381-1.1,4.623,4.623,0,0,1-.094-1.277,3.419,3.419,0,0,1,.139-.754,3.091,3.091,0,0,1,.144-.385.687.687,0,0,1,.331-.356.414.414,0,0,1,.517.137.876.876,0,0,1,.121.439,5.463,5.463,0,0,1-.234,2.013A2.755,2.755,0,0,1,2038.665,341.193Z" transform="translate(-2038.145 -337.513)" fill="#263238"/>
                  </g>
                </g>
                <g id="Grupo_186" data-name="Grupo 186" transform="translate(4.869 2.915)">
                  <g id="Grupo_185" data-name="Grupo 185">
                    <path id="Trazado_73" data-name="Trazado 73" d="M2036.72,343.137c-.019.038-.363-.137-.956-.281a5.2,5.2,0,0,0-1.053-.144,2.4,2.4,0,0,0-.6.038.4.4,0,0,0-.352.344.526.526,0,0,0,.248.467,1.227,1.227,0,0,0,.547.182,2.758,2.758,0,0,0,1.034-.1,6.9,6.9,0,0,1,.96-.283,2.737,2.737,0,0,1-.905.458,2.68,2.68,0,0,1-1.113.167,1.428,1.428,0,0,1-.665-.21.777.777,0,0,1-.365-.7.656.656,0,0,1,.55-.57,2.422,2.422,0,0,1,.677-.031,4.506,4.506,0,0,1,1.092.207A2.18,2.18,0,0,1,2036.72,343.137Z" transform="translate(-2033.493 -342.463)" fill="#263238"/>
                  </g>
                </g>
                <g id="Grupo_188" data-name="Grupo 188" transform="translate(16.929 8.813)">
                  <g id="Grupo_187" data-name="Grupo 187">
                    <path id="Trazado_74" data-name="Trazado 74" d="M2054.86,356.342c-.017.023-.248-.149-.36-.57a2.169,2.169,0,0,1,.276-1.6,5.746,5.746,0,0,1,.493-.735,2.694,2.694,0,0,1,.5-.536.874.874,0,0,1,.47-.2c.123-.005.185.025.183.04a1.387,1.387,0,0,0-.535.3,3.322,3.322,0,0,0-.424.536,8.312,8.312,0,0,0-.459.718,2.273,2.273,0,0,0-.323,1.434C2054.734,356.116,2054.895,356.317,2054.86,356.342Z" transform="translate(-2054.445 -352.708)" fill="#263238"/>
                  </g>
                </g>
                <g id="Grupo_190" data-name="Grupo 190" transform="translate(12.037 6.316)">
                  <g id="Grupo_189" data-name="Grupo 189">
                    <path id="Trazado_75" data-name="Trazado 75" d="M2045.973,350.556a2.229,2.229,0,0,1,1.813-2.171,8.279,8.279,0,0,0-1.095.928A8.373,8.373,0,0,0,2045.973,350.556Z" transform="translate(-2045.946 -348.37)" fill="#263238"/>
                  </g>
                </g>
                <g id="Grupo_192" data-name="Grupo 192" transform="translate(1.512 5.89)">
                  <g id="Grupo_191" data-name="Grupo 191">
                    <path id="Trazado_76" data-name="Trazado 76" d="M2027.663,347.631a5.239,5.239,0,0,1,.646.444,18.344,18.344,0,0,0,1.813,1.111,23.915,23.915,0,0,0,2.88,1.283c1.114.415,2.363.807,3.684,1.19,2.646.762,5.042,1.459,6.771,1.978l2.044.627a4.548,4.548,0,0,1,.74.264,4.484,4.484,0,0,1-.768-.167l-2.067-.548c-1.742-.475-4.144-1.143-6.792-1.905-1.324-.384-2.578-.785-3.7-1.216a21.6,21.6,0,0,1-2.885-1.345,14.451,14.451,0,0,1-1.785-1.191A4.041,4.041,0,0,1,2027.663,347.631Z" transform="translate(-2027.662 -347.63)" fill="#263238"/>
                  </g>
                </g>
                <g id="Grupo_194" data-name="Grupo 194" transform="translate(0.967 5.675)">
                  <g id="Grupo_193" data-name="Grupo 193">
                    <path id="Trazado_77" data-name="Trazado 77" d="M2026.715,347.671a4.105,4.105,0,0,1,1.246-.332,5.146,5.146,0,0,1,3.092.378,3.688,3.688,0,0,1,1.323,1.136,6.156,6.156,0,0,1,.69,1.231,4.8,4.8,0,0,1,.409,1.221,9.124,9.124,0,0,1-.576-1.144,4.657,4.657,0,0,0-1.963-2.213,5.409,5.409,0,0,0-2.951-.428C2027.2,347.6,2026.724,347.712,2026.715,347.671Z" transform="translate(-2026.715 -347.257)" fill="#263238"/>
                  </g>
                </g>
              </g>
              <g id="Grupo_301" data-name="Grupo 301" transform="translate(52.526)">
                <g id="Grupo_297" data-name="Grupo 297" transform="translate(0 0.686)">
                  <g id="Grupo_296" data-name="Grupo 296">
                    <g id="Grupo_212" data-name="Grupo 212">
                      <g id="Grupo_211" data-name="Grupo 211">
                        <g id="Grupo_210" data-name="Grupo 210">
                          <g id="Grupo_202" data-name="Grupo 202">
                            <g id="Grupo_201" data-name="Grupo 201">
                              <g id="Grupo_200" data-name="Grupo 200">
                                <g id="Grupo_199" data-name="Grupo 199">
                                  <g id="Grupo_198" data-name="Grupo 198">
                                    <g id="Grupo_197" data-name="Grupo 197">
                                      <g id="Grupo_196" data-name="Grupo 196">
                                        <path id="Trazado_78" data-name="Trazado 78" d="M2081.931,198.167l.96,19.428a5.787,5.787,0,0,1-5.78,6.072h0a5.789,5.789,0,0,1-5.78-5.509c-.071-1.463-.132-2.682-.15-2.832,0,0-4.969-.221-5.567-5.1-.289-2.357-.491-7.26-.621-11.7a9.153,9.153,0,0,1,8.149-9.362l.471-.052C2078.727,188.851,2081.809,193.047,2081.931,198.167Z" transform="translate(-2064.989 -189.103)" fill="#ffbe9d"/>
                                      </g>
                                    </g>
                                  </g>
                                </g>
                              </g>
                            </g>
                          </g>
                          <g id="Grupo_209" data-name="Grupo 209" transform="translate(6.176 23.641)">
                            <g id="Grupo_208" data-name="Grupo 208">
                              <g id="Grupo_207" data-name="Grupo 207">
                                <g id="Grupo_206" data-name="Grupo 206">
                                  <g id="Grupo_205" data-name="Grupo 205">
                                    <g id="Grupo_204" data-name="Grupo 204">
                                      <g id="Grupo_203" data-name="Grupo 203">
                                        <path id="Trazado_79" data-name="Trazado 79" d="M2075.719,232.684a11.426,11.426,0,0,0,6.168-2.511s-1.117,3.681-6.04,3.778Z" transform="translate(-2075.719 -230.172)" fill="#eb996e"/>
                                      </g>
                                    </g>
                                  </g>
                                </g>
                              </g>
                            </g>
                          </g>
                        </g>
                      </g>
                    </g>
                    <g id="Grupo_279" data-name="Grupo 279" transform="translate(1.302 7.372)">
                      <g id="Grupo_278" data-name="Grupo 278">
                        <g id="Grupo_263" data-name="Grupo 263" transform="translate(0 2.766)">
                          <g id="Grupo_262" data-name="Grupo 262">
                            <g id="Grupo_261" data-name="Grupo 261">
                              <g id="Grupo_228" data-name="Grupo 228" transform="translate(0 0.674)">
                                <g id="Grupo_219" data-name="Grupo 219" transform="translate(0.252 0.953)">
                                  <g id="Grupo_218" data-name="Grupo 218">
                                    <g id="Grupo_217" data-name="Grupo 217">
                                      <g id="Grupo_216" data-name="Grupo 216">
                                        <g id="Grupo_215" data-name="Grupo 215">
                                          <g id="Grupo_214" data-name="Grupo 214">
                                            <g id="Grupo_213" data-name="Grupo 213">
                                              <path id="Trazado_80" data-name="Trazado 80" d="M2067.692,210.25a.7.7,0,0,0,.75.63.671.671,0,0,0,.649-.708.7.7,0,0,0-.749-.63A.672.672,0,0,0,2067.692,210.25Z" transform="translate(-2067.69 -209.54)" fill="#263238"/>
                                            </g>
                                          </g>
                                        </g>
                                      </g>
                                    </g>
                                  </g>
                                </g>
                                <g id="Grupo_227" data-name="Grupo 227">
                                  <g id="Grupo_226" data-name="Grupo 226">
                                    <g id="Grupo_225" data-name="Grupo 225">
                                      <g id="Grupo_224" data-name="Grupo 224">
                                        <g id="Grupo_223" data-name="Grupo 223">
                                          <g id="Grupo_222" data-name="Grupo 222">
                                            <g id="Grupo_221" data-name="Grupo 221">
                                              <g id="Grupo_220" data-name="Grupo 220">
                                                <path id="Trazado_81" data-name="Trazado 81" d="M2067.267,208.78c.1.081.582-.368,1.333-.448s1.342.234,1.414.133c.035-.045-.071-.2-.33-.348a1.927,1.927,0,0,0-1.145-.219,1.843,1.843,0,0,0-1.047.471C2067.28,208.571,2067.22,208.744,2067.267,208.78Z" transform="translate(-2067.252 -207.885)" fill="#263238"/>
                                              </g>
                                            </g>
                                          </g>
                                        </g>
                                      </g>
                                    </g>
                                  </g>
                                </g>
                              </g>
                              <g id="Grupo_244" data-name="Grupo 244" transform="translate(7.393)">
                                <g id="Grupo_235" data-name="Grupo 235" transform="translate(0.229 0.992)">
                                  <g id="Grupo_234" data-name="Grupo 234">
                                    <g id="Grupo_233" data-name="Grupo 233">
                                      <g id="Grupo_232" data-name="Grupo 232">
                                        <g id="Grupo_231" data-name="Grupo 231">
                                          <g id="Grupo_230" data-name="Grupo 230">
                                            <g id="Grupo_229" data-name="Grupo 229">
                                              <path id="Trazado_82" data-name="Trazado 82" d="M2080.495,209.148a.7.7,0,0,0,.75.629.671.671,0,0,0,.649-.708.7.7,0,0,0-.75-.63A.671.671,0,0,0,2080.495,209.148Z" transform="translate(-2080.493 -208.438)" fill="#263238"/>
                                            </g>
                                          </g>
                                        </g>
                                      </g>
                                    </g>
                                  </g>
                                </g>
                                <g id="Grupo_243" data-name="Grupo 243">
                                  <g id="Grupo_242" data-name="Grupo 242">
                                    <g id="Grupo_241" data-name="Grupo 241">
                                      <g id="Grupo_240" data-name="Grupo 240">
                                        <g id="Grupo_239" data-name="Grupo 239">
                                          <g id="Grupo_238" data-name="Grupo 238">
                                            <g id="Grupo_237" data-name="Grupo 237">
                                              <g id="Grupo_236" data-name="Grupo 236">
                                                <path id="Trazado_83" data-name="Trazado 83" d="M2080.11,207.61c.1.081.583-.368,1.333-.449s1.342.234,1.413.133c.036-.045-.07-.2-.33-.348a1.924,1.924,0,0,0-1.144-.219,1.847,1.847,0,0,0-1.048.471C2080.124,207.4,2080.063,207.574,2080.11,207.61Z" transform="translate(-2080.095 -206.715)" fill="#263238"/>
                                              </g>
                                            </g>
                                          </g>
                                        </g>
                                      </g>
                                    </g>
                                  </g>
                                </g>
                              </g>
                              <g id="Grupo_252" data-name="Grupo 252" transform="translate(3.321 0.47)">
                                <g id="Grupo_251" data-name="Grupo 251">
                                  <g id="Grupo_250" data-name="Grupo 250">
                                    <g id="Grupo_249" data-name="Grupo 249">
                                      <g id="Grupo_248" data-name="Grupo 248">
                                        <g id="Grupo_247" data-name="Grupo 247">
                                          <g id="Grupo_246" data-name="Grupo 246">
                                            <g id="Grupo_245" data-name="Grupo 245">
                                              <path id="Trazado_84" data-name="Trazado 84" d="M2075,213.823a5,5,0,0,0-1.243-.085c-.194,0-.379-.017-.426-.144a.987.987,0,0,1,.065-.583l.406-1.522a25.166,25.166,0,0,0,.852-3.957,25.2,25.2,0,0,0-1.169,3.88c-.133.534-.26,1.042-.381,1.528a1.114,1.114,0,0,0-.016.763.483.483,0,0,0,.346.246,1.333,1.333,0,0,0,.331.009A4.91,4.91,0,0,0,2075,213.823Z" transform="translate(-2073.022 -207.532)" fill="#263238"/>
                                            </g>
                                          </g>
                                        </g>
                                      </g>
                                    </g>
                                  </g>
                                </g>
                              </g>
                              <g id="Grupo_260" data-name="Grupo 260" transform="translate(5.391 7.037)">
                                <g id="Grupo_259" data-name="Grupo 259">
                                  <g id="Grupo_258" data-name="Grupo 258">
                                    <g id="Grupo_257" data-name="Grupo 257">
                                      <g id="Grupo_256" data-name="Grupo 256">
                                        <g id="Grupo_255" data-name="Grupo 255">
                                          <g id="Grupo_254" data-name="Grupo 254">
                                            <g id="Grupo_253" data-name="Grupo 253">
                                              <path id="Trazado_85" data-name="Trazado 85" d="M2078.791,218.94c-.123.006-.035.821-.668,1.477s-1.51.661-1.5.775c-.005.052.211.137.579.106a2.038,2.038,0,0,0,1.261-.6,1.775,1.775,0,0,0,.508-1.232C2078.959,219.12,2078.846,218.929,2078.791,218.94Z" transform="translate(-2076.618 -218.939)" fill="#263238"/>
                                            </g>
                                          </g>
                                        </g>
                                      </g>
                                    </g>
                                  </g>
                                </g>
                              </g>
                            </g>
                          </g>
                        </g>
                        <g id="Grupo_270" data-name="Grupo 270" transform="translate(6.882)">
                          <g id="Grupo_269" data-name="Grupo 269">
                            <g id="Grupo_268" data-name="Grupo 268">
                              <g id="Grupo_267" data-name="Grupo 267">
                                <g id="Grupo_266" data-name="Grupo 266">
                                  <g id="Grupo_265" data-name="Grupo 265">
                                    <g id="Grupo_264" data-name="Grupo 264">
                                      <path id="Trazado_86" data-name="Trazado 86" d="M2079.216,202.651c.1.2.835.017,1.728.026.893-.009,1.631.17,1.728-.025.042-.094-.1-.272-.411-.438a3.006,3.006,0,0,0-2.632,0C2079.318,202.379,2079.173,202.558,2079.216,202.651Z" transform="translate(-2079.208 -201.91)" fill="#263238"/>
                                    </g>
                                  </g>
                                </g>
                              </g>
                            </g>
                          </g>
                        </g>
                        <g id="Grupo_277" data-name="Grupo 277" transform="translate(0.024 1.199)">
                          <g id="Grupo_276" data-name="Grupo 276">
                            <g id="Grupo_275" data-name="Grupo 275">
                              <g id="Grupo_274" data-name="Grupo 274">
                                <g id="Grupo_273" data-name="Grupo 273">
                                  <g id="Grupo_272" data-name="Grupo 272">
                                    <g id="Grupo_271" data-name="Grupo 271">
                                      <path id="Trazado_87" data-name="Trazado 87" d="M2067.321,204.926c.151.156.648-.078,1.269-.155.618-.1,1.161-.012,1.262-.2.044-.092-.058-.254-.306-.39a1.853,1.853,0,0,0-2.04.289C2067.306,204.666,2067.253,204.849,2067.321,204.926Z" transform="translate(-2067.293 -203.993)" fill="#263238"/>
                                    </g>
                                  </g>
                                </g>
                              </g>
                            </g>
                          </g>
                        </g>
                      </g>
                    </g>
                    <g id="Grupo_295" data-name="Grupo 295" transform="translate(16.941 12.432)">
                      <g id="Grupo_286" data-name="Grupo 286">
                        <g id="Grupo_285" data-name="Grupo 285">
                          <g id="Grupo_284" data-name="Grupo 284">
                            <g id="Grupo_283" data-name="Grupo 283">
                              <g id="Grupo_282" data-name="Grupo 282">
                                <g id="Grupo_281" data-name="Grupo 281">
                                  <g id="Grupo_280" data-name="Grupo 280">
                                    <path id="Trazado_88" data-name="Trazado 88" d="M2094.42,210.992c.079-.045,3.246-1.363,3.508,1.988s-3.157,2.922-3.17,2.827S2094.42,210.992,2094.42,210.992Z" transform="translate(-2094.42 -210.699)" fill="#ffbe9d"/>
                                  </g>
                                </g>
                              </g>
                            </g>
                          </g>
                        </g>
                      </g>
                      <g id="Grupo_294" data-name="Grupo 294" transform="translate(1.26 1.057)">
                        <g id="Grupo_293" data-name="Grupo 293">
                          <g id="Grupo_292" data-name="Grupo 292">
                            <g id="Grupo_291" data-name="Grupo 291">
                              <g id="Grupo_290" data-name="Grupo 290">
                                <g id="Grupo_289" data-name="Grupo 289">
                                  <g id="Grupo_288" data-name="Grupo 288">
                                    <g id="Grupo_287" data-name="Grupo 287">
                                      <path id="Trazado_89" data-name="Trazado 89" d="M2096.611,215.236c.014-.012.062.036.164.074a.585.585,0,0,0,.437-.025,1.447,1.447,0,0,0,.567-1.348,1.93,1.93,0,0,0-.229-.823.677.677,0,0,0-.474-.414.3.3,0,0,0-.332.187c-.038.1-.011.162-.029.169s-.076-.05-.06-.191a.371.371,0,0,1,.115-.22.44.44,0,0,1,.316-.111.822.822,0,0,1,.65.472,1.986,1.986,0,0,1,.276.918,1.521,1.521,0,0,1-.739,1.513.627.627,0,0,1-.541-.047C2096.624,215.317,2096.6,215.243,2096.611,215.236Z" transform="translate(-2096.609 -212.535)" fill="#eb996e"/>
                                    </g>
                                  </g>
                                </g>
                              </g>
                            </g>
                          </g>
                        </g>
                      </g>
                    </g>
                  </g>
                </g>
                <g id="Grupo_300" data-name="Grupo 300" transform="translate(2.217)">
                  <g id="Grupo_299" data-name="Grupo 299">
                    <g id="Grupo_298" data-name="Grupo 298">
                      <path id="Trazado_90" data-name="Trazado 90" d="M2085.41,201a1.766,1.766,0,0,0-1.516,1c-.164.5-.153,1.047-.316,1.547s-.605.987-1.129.922a1.033,1.033,0,0,1-.78-.685,2.844,2.844,0,0,1-.129-1.076c.025-1.581.183-3.164.072-4.741a8.077,8.077,0,0,0-1.487-4.431,4.415,4.415,0,0,0-4.148-1.765c-1.029.2-1.92.844-2.936,1.1a4.1,4.1,0,0,1-3.513-.758c-.125-.1-.684-.385-.684-.385a1.935,1.935,0,0,1,.238-1.071c1.837-2.117,5.464-3.051,8.241-2.67a9.8,9.8,0,0,1,6.961,4.413c1.441,2.4,1.485,5.964,1.127,8.6" transform="translate(-2068.841 -187.91)" fill="#263238"/>
                    </g>
                  </g>
                </g>
              </g>
              <g id="Grupo_314" data-name="Grupo 314" transform="translate(0 61.713)">
                <g id="Grupo_302" data-name="Grupo 302" transform="translate(16.732 2.211)">
                  <path id="Trazado_91" data-name="Trazado 91" d="M2002.807,325.2s36.071-23.66,37.548-24.152,5.047-2.831,8.616-1.847,6.769,4.185,8.37,8.862,1.724,15.139,1.724,15.139-2.831,8.246-8.37,9.97a14.168,14.168,0,0,1-1.442.362,17.034,17.034,0,0,1-17.42-7.528l-.805-1.226s-23.6,8.669-23.966,8.546Z" transform="translate(-2002.807 -298.959)" fill="#263238"/>
                </g>
                <g id="Grupo_303" data-name="Grupo 303">
                  <path id="Trazado_92" data-name="Trazado 92" d="M1978.171,295.969a7.045,7.045,0,0,0-4.431,6.524c-.036,9.478,19.15,19.924,19.15,19.924l25.53-16.916v-1.778S1985.556,291.907,1978.171,295.969Z" transform="translate(-1973.74 -295.119)" fill="#263238"/>
                </g>
                <g id="Grupo_305" data-name="Grupo 305" transform="translate(16.562 3.786)">
                  <g id="Grupo_304" data-name="Grupo 304">
                    <path id="Trazado_93" data-name="Trazado 93" d="M2047.308,319.846s-.066.033-.2.087l-.591.234-2.286.881-8.5,3.2c-3.61,1.347-7.935,2.948-12.786,4.714s-10.229,3.7-15.971,5.644l-.1.035-.051-.1L2004,329.164l-1.436-2.745-.056-.106.1-.063,27.515-17.467,8.265-5.213,2.245-1.4.586-.359c.132-.079.2-.115.2-.115s-.062.05-.191.136l-.573.379-2.22,1.441-8.221,5.281-27.47,17.534.044-.169,1.437,2.744,2.817,5.383-.156-.062c5.74-1.939,11.119-3.866,15.976-5.615l12.8-4.66,8.525-3.127,2.3-.838.6-.212C2047.237,319.865,2047.308,319.846,2047.308,319.846Z" transform="translate(-2002.511 -301.696)" fill="#455a64"/>
                  </g>
                </g>
                <g id="Grupo_307" data-name="Grupo 307" transform="translate(16.271 5.637)">
                  <g id="Grupo_306" data-name="Grupo 306">
                    <path id="Trazado_94" data-name="Trazado 94" d="M2017.483,318.2a4.692,4.692,0,0,1-.665-.451c-.418-.3-1.015-.753-1.746-1.318-1.462-1.13-3.45-2.731-5.59-4.568s-4.023-3.561-5.361-4.835c-.669-.637-1.2-1.159-1.567-1.527a4.672,4.672,0,0,1-.546-.589,4.752,4.752,0,0,1,.616.516l1.623,1.465c1.369,1.239,3.269,2.938,5.406,4.773s4.1,3.456,5.535,4.621l1.694,1.382A4.754,4.754,0,0,1,2017.483,318.2Z" transform="translate(-2002.006 -304.911)" fill="#455a64"/>
                  </g>
                </g>
                <g id="Grupo_309" data-name="Grupo 309" transform="translate(11.638 4.328)">
                  <g id="Grupo_308" data-name="Grupo 308">
                    <path id="Trazado_95" data-name="Trazado 95" d="M1993.958,302.7a6.325,6.325,0,0,1,4.648,1.371c-.042.068-.973-.525-2.261-.9S1993.957,302.782,1993.958,302.7Z" transform="translate(-1993.958 -302.638)" fill="#455a64"/>
                  </g>
                </g>
                <g id="Grupo_311" data-name="Grupo 311" transform="translate(13.836 2.892)">
                  <g id="Grupo_310" data-name="Grupo 310">
                    <path id="Trazado_96" data-name="Trazado 96" d="M1997.778,300.15a3.879,3.879,0,0,1,2.308,2.857c-.074.026-.353-.769-1-1.556S1997.737,300.217,1997.778,300.15Z" transform="translate(-1997.776 -300.143)" fill="#455a64"/>
                  </g>
                </g>
                <g id="Grupo_313" data-name="Grupo 313" transform="translate(3.027 32.881)">
                  <g id="Grupo_312" data-name="Grupo 312">
                    <path id="Trazado_97" data-name="Trazado 97" d="M1979,352.267c-.014-.03.3-.092.658.2a2.385,2.385,0,0,1,.738,1.482,2.912,2.912,0,0,1-.232,1.634c-.181.388-.379.57-.4.552s.1-.24.231-.621a3.317,3.317,0,0,0,.146-1.529,2.563,2.563,0,0,0-.6-1.382C1979.262,352.32,1978.994,352.309,1979,352.267Z" transform="translate(-1978.998 -352.241)" fill="#263238"/>
                  </g>
                </g>
              </g>
              <g id="Grupo_315" data-name="Grupo 315" transform="translate(22.002 24.738)">
                <path id="Trazado_98" data-name="Trazado 98" d="M2011.963,230.885" transform="translate(-2011.963 -230.885)" fill="#ffbe9d"/>
              </g>
            </g>
          </g>
        </g>
        <g id="Grupo_322" data-name="Grupo 322" transform="translate(1516.312 79.362)">
          <g id="Grupo_320" data-name="Grupo 320">
            <g id="Grupo_319" data-name="Grupo 319">
              <path id="Trazado_99" data-name="Trazado 99" d="M1554.56,137.87h7l11.606,31.038h-7.085L1563.732,162h-11.606l-2.434,6.912h-6.912Zm-.652,19.04h8.042l-3.912-11.389h-.087Z" transform="translate(-1542.78 -137.87)" fill="#fff"/>
              <path id="Trazado_100" data-name="Trazado 100" d="M1613.9,160.21a4.208,4.208,0,0,0-4.563-3.869c-3.956,0-5.26,4-5.26,7.3,0,3.217,1.261,7.085,5.13,7.085,2.868,0,4.521-1.826,4.912-4.565h5.955c-.782,5.956-4.912,9.216-10.824,9.216-6.781,0-11.346-4.782-11.346-11.52,0-7,4.173-12.171,11.476-12.171,5.3,0,10.172,2.782,10.563,8.52Z" transform="translate(-1566.172 -143.735)" fill="#fff"/>
              <path id="Trazado_101" data-name="Trazado 101" d="M1648.741,147.78h4.521v4.13h-4.521v11.128c0,2.087.521,2.608,2.608,2.608a9.468,9.468,0,0,0,1.913-.174V170.3a23.671,23.671,0,0,1-3.608.218c-3.782,0-7.086-.87-7.086-5.347V151.909h-3.738v-4.13h3.738v-6.738h6.173Z" transform="translate(-1583.541 -139.216)" fill="#fff"/>
              <path id="Trazado_102" data-name="Trazado 102" d="M1690.117,175.221h-5.868v-3.13h-.131a8.016,8.016,0,0,1-6.868,3.738c-6.565,0-8.216-3.695-8.216-9.259V152.747h6.172V165.44c0,3.695,1.087,5.521,3.956,5.521,3.347,0,4.782-1.869,4.782-6.433v-11.78h6.173Z" transform="translate(-1596.358 -144.183)" fill="#fff"/>
              <path id="Trazado_103" data-name="Trazado 103" d="M1712.845,159.21c.348-5.782,5.52-7.52,10.563-7.52,4.477,0,9.868,1,9.868,6.39v11.693c0,2.042.218,4.086.782,5H1727.8a9.182,9.182,0,0,1-.435-2.174,10.306,10.306,0,0,1-7.564,2.782c-4.26,0-7.651-2.13-7.651-6.738,0-5.086,3.826-6.3,7.651-6.825,3.782-.565,7.3-.435,7.3-2.956,0-2.651-1.825-3.043-4-3.043-2.347,0-3.869.956-4.086,3.39Zm14.258,4.564c-1.043.913-3.217.956-5.129,1.3-1.913.391-3.652,1.043-3.652,3.3,0,2.3,1.783,2.869,3.782,2.869,4.825,0,5-3.826,5-5.173Z" transform="translate(-1614.655 -143.735)" fill="#fff"/>
              <path id="Trazado_104" data-name="Trazado 104" d="M1757.456,137.87h6.173v31.038h-6.173Z" transform="translate(-1633.882 -137.87)" fill="#fff"/>
              <path id="Trazado_105" data-name="Trazado 105" d="M1783.111,142.956h-6.173V137.87h6.173Zm-6.173,3.477h6.173v22.474h-6.173Z" transform="translate(-1642.149 -137.87)" fill="#fff"/>
              <path id="Trazado_106" data-name="Trazado 106" d="M1793.7,170.57l11.693-13.172H1794.57v-4.651h18.953V157.4l-11.694,13.172h12.519v4.651H1793.7Z" transform="translate(-1649.262 -144.183)" fill="#fff"/>
              <path id="Trazado_107" data-name="Trazado 107" d="M1834.342,159.21c.348-5.782,5.52-7.52,10.563-7.52,4.477,0,9.868,1,9.868,6.39v11.693c0,2.042.218,4.086.782,5h-6.26a9.188,9.188,0,0,1-.435-2.174,10.305,10.305,0,0,1-7.563,2.782c-4.26,0-7.651-2.13-7.651-6.738,0-5.086,3.825-6.3,7.651-6.825,3.782-.565,7.3-.435,7.3-2.956,0-2.651-1.825-3.043-4-3.043-2.347,0-3.869.956-4.086,3.39Zm14.258,4.564c-1.042.913-3.217.956-5.129,1.3-1.913.391-3.652,1.043-3.652,3.3,0,2.3,1.783,2.869,3.782,2.869,4.825,0,5-3.826,5-5.173Z" transform="translate(-1666.214 -143.735)" fill="#fff"/>
              <path id="Trazado_108" data-name="Trazado 108" d="M1878.65,152.3h5.869v4.173h.087a7.946,7.946,0,0,1,7.172-4.782,4.615,4.615,0,0,1,1.348.217v5.738a11.3,11.3,0,0,0-2.217-.217c-4.52,0-6.086,3.26-6.086,7.216v10.129h-6.172Z" transform="translate(-1685.312 -143.735)" fill="#fff"/>
            </g>
          </g>
          <g id="Grupo_321" data-name="Grupo 321" transform="translate(2.533 41.619)">
            <path id="Trazado_109" data-name="Trazado 109" d="M1547.18,210.171h6.118c3.381,0,4.692,2.147,4.692,4.351s-1.311,4.351-4.692,4.351h-3.135v4.864h-2.982Zm2.982,6.384h2.318c1.387,0,2.621-.3,2.621-2.033s-1.235-2.033-2.621-2.033h-2.318Z" transform="translate(-1547.18 -210.171)" fill="#2b2d2d"/>
            <path id="Trazado_110" data-name="Trazado 110" d="M1568.695,216.477h2.565V218.3h.038a3.473,3.473,0,0,1,3.135-2.09,1.992,1.992,0,0,1,.589.1v2.507a4.928,4.928,0,0,0-.969-.095c-1.976,0-2.66,1.425-2.66,3.154V226.3h-2.7Z" transform="translate(-1556.31 -212.734)" fill="#2b2d2d"/>
            <path id="Trazado_111" data-name="Trazado 111" d="M1585.483,216.211a5.178,5.178,0,1,1-5.073,5.187A4.823,4.823,0,0,1,1585.483,216.211Zm0,8.322c1.843,0,2.394-1.577,2.394-3.135,0-1.577-.551-3.154-2.394-3.154-1.824,0-2.375,1.577-2.375,3.154C1583.108,222.956,1583.659,224.533,1585.483,224.533Z" transform="translate(-1561.282 -212.734)" fill="#2b2d2d"/>
            <path id="Trazado_112" data-name="Trazado 112" d="M1610.32,225.673c0,1.615-.57,4.351-5.091,4.351-1.938,0-4.2-.912-4.332-3.154h2.678a1.826,1.826,0,0,0,2.014,1.349c1.5,0,2.185-1.026,2.166-2.431v-1.292h-.038a3.319,3.319,0,0,1-2.945,1.52c-2.944,0-4.2-2.242-4.2-4.94,0-2.546,1.463-4.864,4.218-4.864a3.056,3.056,0,0,1,2.926,1.577h.038v-1.311h2.564Zm-2.564-4.408c0-1.6-.551-3.021-2.3-3.021-1.52,0-2.185,1.33-2.185,2.793,0,1.406.532,2.944,2.185,2.944C1606.995,223.981,1607.755,222.671,1607.755,221.265Z" transform="translate(-1569.838 -212.734)" fill="#2b2d2d"/>
            <path id="Trazado_113" data-name="Trazado 113" d="M1621.264,216.477h2.565V218.3h.037a3.473,3.473,0,0,1,3.135-2.09,1.99,1.99,0,0,1,.589.1v2.507a4.925,4.925,0,0,0-.969-.095c-1.976,0-2.66,1.425-2.66,3.154V226.3h-2.7Z" transform="translate(-1578.619 -212.734)" fill="#2b2d2d"/>
            <path id="Trazado_114" data-name="Trazado 114" d="M1635.38,222.044c.076,1.71.912,2.489,2.413,2.489a2.222,2.222,0,0,0,2.128-1.273h2.374a4.418,4.418,0,0,1-4.6,3.306,4.8,4.8,0,0,1-5.015-5.167,4.926,4.926,0,0,1,5.015-5.187c3.344,0,4.959,2.812,4.769,5.833Zm4.389-1.71c-.247-1.368-.836-2.09-2.147-2.09a2.127,2.127,0,0,0-2.242,2.09Z" transform="translate(-1583.464 -212.734)" fill="#2b2d2d"/>
            <path id="Trazado_115" data-name="Trazado 115" d="M1654.188,223.108c.018,1.178,1.007,1.653,2.071,1.653.778,0,1.767-.3,1.767-1.254,0-.817-1.121-1.1-3.059-1.52-1.558-.342-3.115-.893-3.115-2.622,0-2.507,2.166-3.154,4.274-3.154,2.147,0,4.123.722,4.332,3.135h-2.565c-.076-1.045-.875-1.33-1.843-1.33-.608,0-1.5.114-1.5.912,0,.969,1.52,1.1,3.059,1.463,1.577.361,3.116.931,3.116,2.755,0,2.584-2.242,3.42-4.484,3.42-2.28,0-4.5-.855-4.617-3.458Z" transform="translate(-1591.502 -212.734)" fill="#2b2d2d"/>
            <path id="Trazado_116" data-name="Trazado 116" d="M1674.714,216.211a5.178,5.178,0,1,1-5.073,5.187A4.823,4.823,0,0,1,1674.714,216.211Zm0,8.322c1.843,0,2.393-1.577,2.393-3.135,0-1.577-.551-3.154-2.393-3.154-1.824,0-2.375,1.577-2.375,3.154C1672.339,222.956,1672.89,224.533,1674.714,224.533Z" transform="translate(-1599.149 -212.734)" fill="#2b2d2d"/>
            <path id="Trazado_117" data-name="Trazado 117" d="M1706.209,222.483h-.039a3.261,3.261,0,0,1-2.982,1.52c-2.964,0-4.408-2.546-4.408-5.262,0-2.641,1.463-5.092,4.351-5.092a3.38,3.38,0,0,1,2.907,1.463h.038v-4.94h2.7v13.565h-2.565Zm-2.356-6.8c-1.767,0-2.375,1.52-2.375,3.135,0,1.539.7,3.154,2.375,3.154,1.786,0,2.318-1.558,2.318-3.173C1706.17,217.2,1705.6,215.681,1703.853,215.681Z" transform="translate(-1611.514 -210.171)" fill="#2b2d2d"/>
            <path id="Trazado_118" data-name="Trazado 118" d="M1721.542,222.044c.076,1.71.912,2.489,2.413,2.489a2.221,2.221,0,0,0,2.128-1.273h2.375a4.419,4.419,0,0,1-4.6,3.306,4.8,4.8,0,0,1-5.016-5.167,4.926,4.926,0,0,1,5.016-5.187c3.344,0,4.958,2.812,4.769,5.833Zm4.389-1.71c-.246-1.368-.836-2.09-2.146-2.09a2.127,2.127,0,0,0-2.242,2.09Z" transform="translate(-1620.029 -212.734)" fill="#2b2d2d"/>
            <path id="Trazado_119" data-name="Trazado 119" d="M1754.487,222.483h-.038a3.26,3.26,0,0,1-2.982,1.52c-2.964,0-4.408-2.546-4.408-5.262,0-2.641,1.463-5.092,4.351-5.092a3.38,3.38,0,0,1,2.907,1.463h.037v-4.94h2.7v13.565h-2.565Zm-2.356-6.8c-1.767,0-2.374,1.52-2.374,3.135,0,1.539.7,3.154,2.374,3.154,1.786,0,2.318-1.558,2.318-3.173C1754.448,217.2,1753.879,215.681,1752.13,215.681Z" transform="translate(-1632.002 -210.171)" fill="#2b2d2d"/>
            <path id="Trazado_120" data-name="Trazado 120" d="M1769.82,222.044c.075,1.71.913,2.489,2.413,2.489a2.221,2.221,0,0,0,2.128-1.273h2.375a4.418,4.418,0,0,1-4.6,3.306,4.8,4.8,0,0,1-5.016-5.167,4.926,4.926,0,0,1,5.016-5.187c3.344,0,4.958,2.812,4.769,5.833Zm4.388-1.71c-.247-1.368-.836-2.09-2.147-2.09a2.126,2.126,0,0,0-2.242,2.09Z" transform="translate(-1640.516 -212.734)" fill="#2b2d2d"/>
            <path id="Trazado_121" data-name="Trazado 121" d="M1788.629,223.108c.018,1.178,1.007,1.653,2.071,1.653.779,0,1.767-.3,1.767-1.254,0-.817-1.121-1.1-3.059-1.52-1.558-.342-3.115-.893-3.115-2.622,0-2.507,2.166-3.154,4.275-3.154,2.146,0,4.123.722,4.332,3.135h-2.565c-.076-1.045-.874-1.33-1.843-1.33-.608,0-1.5.114-1.5.912,0,.969,1.52,1.1,3.059,1.463,1.577.361,3.116.931,3.116,2.755,0,2.584-2.241,3.42-4.484,3.42-2.28,0-4.5-.855-4.617-3.458Z" transform="translate(-1648.554 -212.734)" fill="#2b2d2d"/>
            <path id="Trazado_122" data-name="Trazado 122" d="M1811.073,219.935a1.84,1.84,0,0,0-2-1.691c-1.729,0-2.3,1.748-2.3,3.192,0,1.406.551,3.1,2.241,3.1a2.077,2.077,0,0,0,2.148-2h2.6a4.39,4.39,0,0,1-4.731,4.028,4.768,4.768,0,0,1-4.958-5.034c0-3.059,1.824-5.32,5.016-5.32,2.318,0,4.446,1.216,4.616,3.724Z" transform="translate(-1656.201 -212.734)" fill="#2b2d2d"/>
            <path id="Trazado_123" data-name="Trazado 123" d="M1823.129,219.5c.152-2.527,2.412-3.287,4.617-3.287,1.957,0,4.313.437,4.313,2.793v5.11a5.033,5.033,0,0,0,.342,2.185h-2.736a4.02,4.02,0,0,1-.19-.95,4.5,4.5,0,0,1-3.305,1.216c-1.862,0-3.344-.931-3.344-2.945,0-2.223,1.672-2.755,3.344-2.983,1.653-.247,3.192-.19,3.192-1.292,0-1.159-.8-1.33-1.748-1.33-1.026,0-1.691.418-1.786,1.482Zm6.232,2a5.371,5.371,0,0,1-2.242.57c-.836.171-1.6.456-1.6,1.444,0,1.007.778,1.254,1.653,1.254a2.005,2.005,0,0,0,2.185-2.261Z" transform="translate(-1664.155 -212.734)" fill="#2b2d2d"/>
            <path id="Trazado_124" data-name="Trazado 124" d="M1842.492,216.477h2.565V218.3h.038a3.473,3.473,0,0,1,3.135-2.09,1.986,1.986,0,0,1,.588.1v2.507a4.92,4.92,0,0,0-.968-.095c-1.976,0-2.66,1.425-2.66,3.154V226.3h-2.7Z" transform="translate(-1672.501 -212.734)" fill="#2b2d2d"/>
            <path id="Trazado_125" data-name="Trazado 125" d="M1864.547,225.673c0,1.615-.57,4.351-5.091,4.351-1.938,0-4.2-.912-4.332-3.154h2.679a1.825,1.825,0,0,0,2.014,1.349c1.5,0,2.184-1.026,2.165-2.431v-1.292h-.037a3.319,3.319,0,0,1-2.945,1.52c-2.945,0-4.2-2.242-4.2-4.94,0-2.546,1.463-4.864,4.218-4.864a3.056,3.056,0,0,1,2.926,1.577h.037v-1.311h2.565Zm-2.565-4.408c0-1.6-.551-3.021-2.3-3.021-1.52,0-2.185,1.33-2.185,2.793,0,1.406.532,2.944,2.185,2.944C1861.223,223.981,1861.982,222.671,1861.982,221.265Z" transform="translate(-1677.724 -212.734)" fill="#2b2d2d"/>
            <path id="Trazado_126" data-name="Trazado 126" d="M1875.07,219.5c.152-2.527,2.412-3.287,4.616-3.287,1.957,0,4.313.437,4.313,2.793v5.11a5.043,5.043,0,0,0,.342,2.185h-2.736a4.045,4.045,0,0,1-.19-.95,4.5,4.5,0,0,1-3.305,1.216c-1.862,0-3.343-.931-3.343-2.945,0-2.223,1.672-2.755,3.343-2.983,1.653-.247,3.192-.19,3.192-1.292,0-1.159-.8-1.33-1.748-1.33-1.026,0-1.691.418-1.786,1.482Zm6.232,2a5.367,5.367,0,0,1-2.241.57c-.836.171-1.6.456-1.6,1.444,0,1.007.779,1.254,1.653,1.254a2.005,2.005,0,0,0,2.185-2.261Z" transform="translate(-1686.197 -212.734)" fill="#2b2d2d"/>
            <path id="Trazado_127" data-name="Trazado 127" d="M1897.648,219.9h-2.983V216.97h2.983Zm-2.983,3.8h2.983v2.926h-2.983Z" transform="translate(-1694.641 -213.056)" fill="#2b2d2d"/>
          </g>
        </g>
        <g id="Grupo_323" data-name="Grupo 323" transform="translate(1638.306 172.571)">
          <circle id="Elipse_3" data-name="Elipse 3" cx="66.573" cy="66.573" r="66.573" fill="#97cc17"/>
          <circle id="Elipse_4" data-name="Elipse 4" cx="61.763" cy="61.763" r="61.763" transform="translate(4.81 4.81)" fill="#fff"/>
        </g>
        <circle id="Elipse_5" data-name="Elipse 5" cx="60.348" cy="60.348" r="60.348" transform="translate(1644.267 179.199)" fill="#f7f7f7"/>
        <g id="Grupo_325" data-name="Grupo 325" transform="translate(1819.451 731.09)">
          <g id="Grupo_324" data-name="Grupo 324">
            <path id="Trazado_128" data-name="Trazado 128" d="M2069.4,1327.161v38.069a14.486,14.486,0,0,0,14.486,14.486h0a14.486,14.486,0,0,0,14.486-14.486v-38.069a14.486,14.486,0,0,0-23.843-11.058h0A14.486,14.486,0,0,0,2069.4,1327.161Z" transform="translate(-2069.398 -1248.134)" fill="#00d1a3"/>
            <path id="Trazado_129" data-name="Trazado 129" d="M2135.093,1271.124v70.326a14.486,14.486,0,0,0,14.486,14.486h0a14.486,14.486,0,0,0,14.486-14.486v-70.326a14.486,14.486,0,0,0-23.844-11.058h0A14.485,14.485,0,0,0,2135.093,1271.124Z" transform="translate(-2097.277 -1224.354)" fill="#00bdd4"/>
            <path id="Trazado_130" data-name="Trazado 130" d="M2200.788,1215.088V1317.67a14.486,14.486,0,0,0,14.486,14.486h0a14.486,14.486,0,0,0,14.486-14.486V1215.088a14.486,14.486,0,0,0-23.843-11.058h0A14.486,14.486,0,0,0,2200.788,1215.088Z" transform="translate(-2125.156 -1200.574)" fill="#62d600"/>
          </g>
        </g>
      </g>
    </g>
  </g>
</svg>
