<?xml version="1.0" encoding="utf-8"?>
<!-- Generator: Adobe Illustrator 24.1.0, SVG Export Plug-In . SVG Version: 6.00 Build 0)  -->
<svg version="1.1" id="Capa_1" xmlns="http://www.w3.org/2000/svg" xmlns:xlink="http://www.w3.org/1999/xlink" x="0px" y="0px"
	 viewBox="0 0 111 111" style="enable-background:new 0 0 111 111;" xml:space="preserve">
<style type="text/css">
	.st0{fill:url(#SVGID_1_);}
	.st1{fill:url(#SVGID_2_);}
	.st2{fill:url(#SVGID_3_);}
	.st3{fill:#05A048;}
	.st4{fill:#0A6031;}
</style>
<g>
	<g>
		<g>
			<linearGradient id="SVGID_1_" gradientUnits="userSpaceOnUse" x1="23.8379" y1="41.4427" x2="88.1095" y2="41.4427">
				<stop  offset="0.2008" style="stop-color:#09D8BA"/>
				<stop  offset="0.2874" style="stop-color:#0AD6B4"/>
				<stop  offset="0.4026" style="stop-color:#0CD2A3"/>
				<stop  offset="0.5341" style="stop-color:#10CA87"/>
				<stop  offset="0.6775" style="stop-color:#15BF61"/>
				<stop  offset="0.8289" style="stop-color:#1BB230"/>
				<stop  offset="0.927" style="stop-color:#20A80C"/>
			</linearGradient>
			<circle class="st0" cx="56" cy="41.4" r="32.1"/>
			<linearGradient id="SVGID_2_" gradientUnits="userSpaceOnUse" x1="35.4526" y1="47.25" x2="80.8994" y2="47.25">
				<stop  offset="6.589580e-02" style="stop-color:#0FE9EF"/>
				<stop  offset="0.1468" style="stop-color:#18E8E6;stop-opacity:0.9081"/>
				<stop  offset="0.281" style="stop-color:#32E6CD;stop-opacity:0.7556"/>
				<stop  offset="0.452" style="stop-color:#5BE2A3;stop-opacity:0.5614"/>
				<stop  offset="0.653" style="stop-color:#94DC6B;stop-opacity:0.3331"/>
				<stop  offset="0.8768" style="stop-color:#DCD523;stop-opacity:7.889414e-02"/>
				<stop  offset="0.9462" style="stop-color:#F4D30B;stop-opacity:0"/>
			</linearGradient>
			<path class="st1" d="M74.2,27.6L74.2,27.6c-8.9-8.9-23.3-8.9-32.1,0v0c-8.9,8.9-8.9,23.3,0,32.1L56,73.6c1.6,0,3.2-0.1,4.8-0.4
				l13.5-13.5C83.1,50.8,83.1,36.5,74.2,27.6z M58.2,50.5c-3.8,0-6.8-3.1-6.8-6.8s3.1-6.8,6.8-6.8c3.8,0,6.8,3.1,6.8,6.8
				S61.9,50.5,58.2,50.5z"/>
			<linearGradient id="SVGID_3_" gradientUnits="userSpaceOnUse" x1="40.5802" y1="18.9634" x2="65.7002" y2="55.6466">
				<stop  offset="0.1442" style="stop-color:#06B7A6"/>
				<stop  offset="0.3755" style="stop-color:#0D9767"/>
				<stop  offset="0.4944" style="stop-color:#10894C"/>
				<stop  offset="0.8966" style="stop-color:#0D3804"/>
			</linearGradient>
			<path class="st2" d="M72,25.4L72,25.4c-8.9-8.9-23.3-8.9-32.1,0h0c-8.9,8.9-8.9,23.3,0,32.1L56,73.6L72,57.5
				C80.9,48.6,80.9,34.2,72,25.4z M56,48.3c-3.8,0-6.8-3.1-6.8-6.8s3.1-6.8,6.8-6.8c3.8,0,6.8,3.1,6.8,6.8S59.7,48.3,56,48.3z"/>
		</g>
	</g>
	<g>
		<g>
			<path class="st3" d="M26.5,83.7c0,0.1,0.1,0.2,0.2,0.3c0.1,0.1,0.2,0.1,0.3,0.2c0.1,0.1,0.3,0.1,0.6,0.1c0.2,0,0.4,0,0.5,0
				c0.1,0,0.3-0.1,0.4-0.1c0.1-0.1,0.2-0.1,0.2-0.2c0-0.1,0.1-0.2,0.1-0.3c0-0.1,0-0.1-0.1-0.2c0-0.1-0.1-0.1-0.2-0.2
				c-0.1-0.1-0.2-0.1-0.4-0.1c-0.2,0-0.3-0.1-0.6-0.1c-0.4-0.1-0.7-0.1-1-0.2c-0.3-0.1-0.5-0.2-0.7-0.4c-0.2-0.1-0.3-0.3-0.4-0.5
				c-0.1-0.2-0.1-0.4-0.1-0.6c0-0.3,0.1-0.5,0.2-0.7c0.1-0.2,0.3-0.4,0.5-0.5c0.2-0.1,0.4-0.2,0.7-0.3c0.3-0.1,0.6-0.1,0.9-0.1
				c0.3,0,0.5,0,0.7,0.1c0.2,0,0.4,0.1,0.6,0.2c0.2,0.1,0.3,0.2,0.4,0.3c0.1,0.1,0.2,0.2,0.3,0.3c0.2,0.2,0.3,0.5,0.3,0.8h-1.3
				c0-0.1-0.1-0.2-0.1-0.2c-0.1-0.1-0.2-0.1-0.3-0.1c-0.1,0-0.3-0.1-0.5-0.1c-0.2,0-0.4,0-0.5,0c-0.1,0-0.2,0.1-0.3,0.1
				c-0.1,0-0.1,0.1-0.2,0.2c0,0.1,0,0.1,0,0.2c0,0.1,0,0.1,0,0.2c0,0.1,0.1,0.1,0.2,0.2c0.1,0,0.2,0.1,0.3,0.1
				c0.1,0,0.3,0.1,0.5,0.1c0.4,0.1,0.7,0.1,1,0.2c0.3,0.1,0.6,0.2,0.8,0.3c0.2,0.1,0.4,0.3,0.5,0.5c0.1,0.2,0.2,0.5,0.2,0.7
				c0,0.3-0.1,0.6-0.2,0.8s-0.3,0.4-0.5,0.5c-0.2,0.1-0.5,0.2-0.8,0.3c-0.3,0.1-0.6,0.1-1,0.1c-0.3,0-0.6,0-0.8-0.1
				c-0.2,0-0.4-0.1-0.6-0.2c-0.2-0.1-0.3-0.2-0.4-0.3s-0.2-0.2-0.3-0.3c-0.2-0.2-0.3-0.5-0.3-0.8H26.5z"/>
			<path class="st3" d="M35.3,81.9V83h-2.9v1.2h3.3v1.1H31v-5.6h4.6v1.1h-3.3v1.1H35.3z"/>
			<path class="st3" d="M40.4,81.1c-0.1-0.1-0.2-0.1-0.3-0.2c-0.1,0-0.2-0.1-0.3-0.1c-0.1,0-0.3-0.1-0.5-0.1c-0.2,0-0.5,0-0.7,0.1
				c-0.2,0.1-0.4,0.2-0.5,0.3s-0.3,0.3-0.4,0.6c-0.1,0.2-0.1,0.5-0.1,0.8s0,0.5,0.1,0.8c0.1,0.2,0.2,0.4,0.4,0.6
				c0.2,0.1,0.3,0.3,0.5,0.3c0.2,0.1,0.4,0.1,0.7,0.1c0.2,0,0.5,0,0.6-0.1c0.2-0.1,0.3-0.2,0.5-0.3c0.1-0.1,0.2-0.2,0.3-0.4
				c0.1-0.2,0.1-0.3,0.1-0.5h-1.7v-1.1h3c0,0.5,0,1-0.1,1.4c-0.1,0.4-0.3,0.8-0.5,1.1c-0.2,0.3-0.6,0.5-0.9,0.7
				c-0.4,0.2-0.8,0.2-1.3,0.2c-0.3,0-0.6,0-0.8-0.1c-0.3-0.1-0.5-0.2-0.7-0.3s-0.4-0.3-0.6-0.4c-0.2-0.2-0.3-0.4-0.5-0.6
				c-0.1-0.2-0.2-0.5-0.3-0.7c-0.1-0.3-0.1-0.5-0.1-0.8c0-0.3,0-0.6,0.1-0.8c0.1-0.3,0.2-0.5,0.3-0.7c0.1-0.2,0.3-0.4,0.5-0.6
				c0.2-0.2,0.4-0.3,0.6-0.4c0.2-0.1,0.5-0.2,0.7-0.3c0.3-0.1,0.5-0.1,0.8-0.1c0.2,0,0.5,0,0.7,0.1c0.2,0,0.4,0.1,0.6,0.2
				c0.2,0.1,0.3,0.1,0.5,0.2c0.1,0.1,0.3,0.2,0.4,0.3c0.2,0.2,0.4,0.5,0.6,0.7H40.4z"/>
			<path class="st3" d="M45.9,85.4c-0.4,0-0.8-0.1-1.1-0.2s-0.6-0.3-0.8-0.5c-0.2-0.2-0.4-0.5-0.5-0.8c-0.1-0.3-0.2-0.7-0.2-1.1
				v-3.2h1.3v3c0,0.2,0,0.4,0.1,0.6c0,0.2,0.1,0.4,0.2,0.5c0.1,0.1,0.2,0.2,0.4,0.3c0.2,0.1,0.4,0.1,0.6,0.1c0.2,0,0.4,0,0.6-0.1
				c0.2-0.1,0.3-0.2,0.4-0.3c0.1-0.1,0.2-0.3,0.2-0.5c0-0.2,0.1-0.4,0.1-0.6v-3h1.3v3.2c0,0.4-0.1,0.8-0.2,1.1
				c-0.1,0.3-0.3,0.6-0.5,0.8c-0.2,0.2-0.5,0.4-0.8,0.5C46.7,85.3,46.3,85.4,45.9,85.4z"/>
			<path class="st3" d="M51.1,85.3h-1.3v-5.6h1.3V85.3z"/>
			<path class="st3" d="M53.7,82v3.4h-1.3v-5.6H54l1.6,3.9l1.6-3.9h1.6v5.6h-1.3V82l-1.4,3.4h-1L53.7,82z"/>
			<path class="st3" d="M61.5,85.3h-1.3v-5.6h1.3V85.3z"/>
			<path class="st3" d="M67,81.9V83h-2.9v1.2h3.3v1.1h-4.6v-5.6h4.6v1.1h-3.3v1.1H67z"/>
			<path class="st3" d="M68.6,79.7H70l2.5,3.7v-3.7h1.3v5.6h-1.5l-2.5-3.7v3.7h-1.3V79.7z"/>
			<path class="st3" d="M80.1,79.7v1.1h-2v4.5h-1.3v-4.5h-2v-1.1H80.1z"/>
			<path class="st3" d="M80.5,82.5c0-0.3,0-0.6,0.1-0.8c0.1-0.3,0.2-0.5,0.3-0.7c0.1-0.2,0.3-0.4,0.5-0.6c0.2-0.2,0.4-0.3,0.6-0.4
				c0.2-0.1,0.5-0.2,0.7-0.3c0.3-0.1,0.5-0.1,0.8-0.1c0.3,0,0.6,0,0.8,0.1c0.3,0.1,0.5,0.2,0.7,0.3c0.2,0.1,0.4,0.3,0.6,0.4
				c0.2,0.2,0.3,0.4,0.5,0.6c0.1,0.2,0.2,0.5,0.3,0.7c0.1,0.3,0.1,0.5,0.1,0.8c0,0.3,0,0.6-0.1,0.8c-0.1,0.3-0.2,0.5-0.3,0.7
				c-0.1,0.2-0.3,0.4-0.5,0.6c-0.2,0.2-0.4,0.3-0.6,0.4s-0.5,0.2-0.7,0.3c-0.3,0.1-0.5,0.1-0.8,0.1c-0.3,0-0.6,0-0.8-0.1
				c-0.3-0.1-0.5-0.2-0.7-0.3s-0.4-0.3-0.6-0.4c-0.2-0.2-0.3-0.4-0.5-0.6c-0.1-0.2-0.2-0.5-0.3-0.7C80.5,83.1,80.5,82.8,80.5,82.5z
				 M81.8,82.5c0,0.3,0,0.5,0.1,0.8c0.1,0.2,0.2,0.4,0.4,0.6c0.2,0.1,0.3,0.3,0.5,0.3c0.2,0.1,0.4,0.1,0.7,0.1s0.5,0,0.7-0.1
				c0.2-0.1,0.4-0.2,0.5-0.3c0.2-0.1,0.3-0.3,0.4-0.6c0.1-0.2,0.1-0.5,0.1-0.8s0-0.5-0.1-0.8c-0.1-0.2-0.2-0.4-0.4-0.6
				c-0.2-0.1-0.3-0.3-0.5-0.3c-0.2-0.1-0.4-0.1-0.7-0.1s-0.5,0-0.7,0.1c-0.2,0.1-0.4,0.2-0.5,0.3c-0.2,0.1-0.3,0.3-0.4,0.6
				C81.8,82,81.8,82.2,81.8,82.5z"/>
			<path class="st4" d="M13.7,88v1.9h-3.4v7.7H8v-7.7H4.6V88H13.7z"/>
			<path class="st4" d="M22.7,91.7v1.9h-5v2h5.7v1.9h-7.9V88h7.9v1.9h-5.6v1.8H22.7z"/>
			<path class="st4" d="M25.3,97.6V88h5.3c0.5,0,1,0.1,1.4,0.2c0.4,0.1,0.7,0.4,1,0.6c0.3,0.3,0.5,0.6,0.6,1
				c0.1,0.4,0.2,0.8,0.2,1.3c0,0.3,0,0.7-0.1,0.9c-0.1,0.3-0.2,0.6-0.4,0.8c-0.2,0.2-0.4,0.4-0.6,0.6c-0.2,0.2-0.5,0.3-0.8,0.4
				l2.2,3.8h-2.5l-2-3.4h-2.1v3.4H25.3z M27.5,89.9v2.3h3c0.1,0,0.3,0,0.4-0.1c0.1-0.1,0.2-0.1,0.3-0.2c0.1-0.1,0.2-0.2,0.2-0.4
				c0-0.1,0.1-0.3,0.1-0.5c0-0.2,0-0.3-0.1-0.5c0-0.1-0.1-0.3-0.2-0.4c-0.1-0.1-0.2-0.2-0.3-0.2c-0.1-0.1-0.3-0.1-0.4-0.1H27.5z"/>
			<path class="st4" d="M35.9,97.6V88h5.3c0.5,0,1,0.1,1.4,0.2c0.4,0.1,0.7,0.4,1,0.6c0.3,0.3,0.5,0.6,0.6,1
				c0.1,0.4,0.2,0.8,0.2,1.3c0,0.3,0,0.7-0.1,0.9c-0.1,0.3-0.2,0.6-0.4,0.8c-0.2,0.2-0.4,0.4-0.6,0.6c-0.2,0.2-0.5,0.3-0.8,0.4
				l2.2,3.8h-2.5l-2-3.4h-2.1v3.4H35.9z M38.2,89.9v2.3h3c0.1,0,0.3,0,0.4-0.1c0.1-0.1,0.2-0.1,0.3-0.2c0.1-0.1,0.2-0.2,0.2-0.4
				c0-0.1,0.1-0.3,0.1-0.5c0-0.2,0-0.3-0.1-0.5c0-0.1-0.1-0.3-0.2-0.4c-0.1-0.1-0.2-0.2-0.3-0.2c-0.1-0.1-0.3-0.1-0.4-0.1H38.2z"/>
			<path class="st4" d="M49,97.6h-2.2V88H49V97.6z"/>
			<path class="st4" d="M59.9,88v1.9h-3.4v7.7h-2.2v-7.7h-3.4V88H59.9z"/>
			<path class="st4" d="M60.5,92.8c0-0.5,0.1-1,0.2-1.4c0.1-0.4,0.3-0.8,0.5-1.2c0.2-0.4,0.5-0.7,0.8-1c0.3-0.3,0.7-0.5,1-0.7
				c0.4-0.2,0.8-0.4,1.2-0.5s0.9-0.2,1.4-0.2c0.5,0,1,0.1,1.4,0.2c0.4,0.1,0.9,0.3,1.2,0.5c0.4,0.2,0.7,0.4,1,0.7
				c0.3,0.3,0.6,0.6,0.8,1c0.2,0.4,0.4,0.8,0.5,1.2c0.1,0.4,0.2,0.9,0.2,1.4c0,0.5-0.1,1-0.2,1.4c-0.1,0.4-0.3,0.8-0.5,1.2
				c-0.2,0.4-0.5,0.7-0.8,1s-0.7,0.5-1,0.7c-0.4,0.2-0.8,0.4-1.2,0.5c-0.4,0.1-0.9,0.2-1.4,0.2c-0.5,0-1-0.1-1.4-0.2
				s-0.9-0.3-1.2-0.5c-0.4-0.2-0.7-0.4-1-0.7c-0.3-0.3-0.6-0.6-0.8-1c-0.2-0.4-0.4-0.8-0.5-1.2C60.6,93.8,60.5,93.3,60.5,92.8z
				 M62.7,92.8c0,0.5,0.1,0.9,0.2,1.3c0.1,0.4,0.3,0.7,0.6,0.9c0.3,0.3,0.6,0.5,0.9,0.6c0.4,0.1,0.7,0.2,1.2,0.2
				c0.4,0,0.8-0.1,1.2-0.2c0.4-0.1,0.7-0.3,0.9-0.6c0.3-0.3,0.5-0.6,0.6-0.9c0.1-0.4,0.2-0.8,0.2-1.3c0-0.5-0.1-0.9-0.2-1.3
				c-0.1-0.4-0.4-0.7-0.6-0.9c-0.3-0.3-0.6-0.5-0.9-0.6c-0.4-0.1-0.7-0.2-1.2-0.2c-0.4,0-0.8,0.1-1.2,0.2c-0.4,0.1-0.7,0.3-0.9,0.6
				c-0.3,0.3-0.5,0.6-0.6,0.9C62.8,91.9,62.7,92.3,62.7,92.8z"/>
			<path class="st4" d="M72.6,97.6V88h5.3c0.5,0,1,0.1,1.4,0.2c0.4,0.1,0.7,0.4,1,0.6c0.3,0.3,0.5,0.6,0.6,1
				c0.1,0.4,0.2,0.8,0.2,1.3c0,0.3,0,0.7-0.1,0.9c-0.1,0.3-0.2,0.6-0.4,0.8c-0.2,0.2-0.4,0.4-0.6,0.6s-0.5,0.3-0.8,0.4l2.2,3.8h-2.5
				l-2-3.4h-2.1v3.4H72.6z M74.9,89.9v2.3h3c0.1,0,0.3,0,0.4-0.1c0.1-0.1,0.2-0.1,0.3-0.2c0.1-0.1,0.2-0.2,0.2-0.4
				c0-0.1,0.1-0.3,0.1-0.5c0-0.2,0-0.3-0.1-0.5c0-0.1-0.1-0.3-0.2-0.4c-0.1-0.1-0.2-0.2-0.3-0.2c-0.1-0.1-0.3-0.1-0.4-0.1H74.9z"/>
			<path class="st4" d="M85.7,97.6h-2.2V88h2.2V97.6z"/>
			<path class="st4" d="M94.7,95.8h-4.2l-0.8,1.8h-2.4l4.4-9.7h1.9l4.4,9.7h-2.4L94.7,95.8z M91.4,93.9h2.5l-1.2-2.8L91.4,93.9z"/>
			<path class="st4" d="M101.7,95.7h5.3v1.9h-7.5V88h2.2V95.7z"/>
		</g>
	</g>
</g>
</svg>
